<svg width="574" height="226" viewBox="0 0 574 226" fill="none" xmlns="http://www.w3.org/2000/svg">
<g clip-path="url(#clip0_809_61)">
<path d="M224.25 104.563C225.645 104.533 225.645 104.533 227.067 104.502C233.217 104.506 237.103 105.168 242 109C243.559 111.797 243.559 111.797 244.438 114.75C244.746 115.735 245.054 116.72 245.372 117.734C245.579 118.482 245.787 119.23 246 120C246.341 119.408 246.681 118.817 247.032 118.207C251.166 111.467 255.455 107.515 263 105C279.666 103.794 279.666 103.794 286 109C289.736 112.632 292.815 116.247 295 121C295.074 119.519 295.074 119.519 295.149 118.008C295.224 116.727 295.298 115.445 295.375 114.125C295.445 112.849 295.515 111.573 295.586 110.258C296 107 296 107 298 105C300.825 104.434 300.825 104.434 304 105C305.962 107.373 307.338 109.409 308.813 112.063C309.232 112.775 309.652 113.488 310.084 114.223C310.961 115.716 311.83 117.215 312.689 118.719C314.353 121.613 316.077 124.467 317.808 127.32C319.552 130.206 321.274 133.104 323 136C323.33 125.77 323.66 115.54 324 105C326.31 105 328.62 105 331 105C333.604 108.906 333.352 112.287 333.414 116.824C333.434 117.686 333.453 118.547 333.473 119.435C333.533 122.186 333.579 124.936 333.625 127.688C333.664 129.553 333.703 131.418 333.743 133.283C333.839 137.855 333.923 142.428 334 147C334.359 145.799 334.717 144.598 335.086 143.36C336.413 138.913 337.742 134.466 339.072 130.02C339.648 128.094 340.223 126.167 340.798 124.241C341.623 121.475 342.45 118.71 343.278 115.945C343.664 114.648 343.664 114.648 344.058 113.325C344.298 112.525 344.538 111.724 344.785 110.899C344.996 110.193 345.207 109.487 345.425 108.759C346 107 346 107 347 105C350.3 105 353.6 105 357 105C359.407 110.333 361.244 115.691 362.918 121.293C363.18 122.162 363.443 123.03 363.713 123.925C364.262 125.749 364.809 127.573 365.354 129.398C366.189 132.192 367.035 134.982 367.881 137.772C368.415 139.549 368.948 141.327 369.481 143.106C369.734 143.938 369.987 144.77 370.248 145.628C370.478 146.406 370.709 147.184 370.946 147.985C371.151 148.666 371.355 149.346 371.565 150.048C372 152 372 152 372 156C369.36 156 366.72 156 364 156C363.01 152.37 362.02 148.74 361 145C352.585 145.495 352.585 145.495 344 146C342.68 149.3 341.36 152.6 340 156C334.649 156.962 329.257 157.78 324 156C318.976 152.006 316.332 145.609 313.5 140C312.664 138.455 311.821 136.914 310.973 135.375C308.903 131.617 306.963 127.823 305 124C304.67 134.56 304.34 145.12 304 156C301.69 156 299.38 156 297 156C294.941 153.941 295.586 149.783 295.438 146.938C295.395 146.179 295.352 145.42 295.307 144.639C295.201 142.759 295.1 140.88 295 139C294.732 139.58 294.464 140.16 294.188 140.758C290.604 147.902 286.363 151.819 279.25 155.375C270.949 156.972 263.699 156.888 256.254 152.598C248.315 146.97 245.478 140.235 243 131C242.382 131.495 241.763 131.99 241.125 132.5C239 134 239 134 237 134C237.243 134.631 237.485 135.262 237.735 135.912C238.825 138.753 239.913 141.595 241 144.438C241.382 145.431 241.764 146.424 242.157 147.447C242.518 148.392 242.879 149.336 243.25 150.309C243.586 151.183 243.921 152.058 244.266 152.959C245 155 245 155 245 156C239.043 156.488 239.043 156.488 237 156C234.083 152.208 232.531 147.62 230.813 143.188C230.54 142.495 230.268 141.802 229.987 141.088C229.321 139.394 228.66 137.697 228 136C225.36 135.67 222.72 135.34 220 135C220 141.93 220 148.86 220 156C217.03 156 214.06 156 211 156C210.926 149.219 210.872 142.438 210.836 135.657C210.821 133.349 210.8 131.042 210.774 128.734C210.738 125.42 210.721 122.107 210.707 118.793C210.692 117.759 210.676 116.724 210.661 115.658C210.66 114.698 210.66 113.737 210.66 112.747C210.653 111.901 210.647 111.055 210.64 110.183C211.795 103.19 218.737 104.521 224.25 104.563ZM220 113C220 117.62 220 122.24 220 127C221.898 127.041 223.795 127.083 225.75 127.125C226.818 127.148 227.885 127.172 228.985 127.195C231.925 127.005 233.524 126.527 236 125C236.081 123.376 236.14 121.751 236.188 120.125C236.223 119.22 236.258 118.315 236.293 117.383C236.148 116.203 236.148 116.203 236 115C232.368 112.579 230.617 112.79 226.313 112.875C224.23 112.916 222.147 112.958 220 113ZM268 114C268.31 114.536 268.619 115.073 268.938 115.625C270.179 118.399 270.591 121.001 271 124C272.805 121.241 273.013 120.11 272.625 116.75C272.419 115.843 272.213 114.935 272 114C270.68 114 269.36 114 268 114ZM264 115C263.34 115.66 262.68 116.32 262 117C264.97 118.98 264.97 118.98 268 121C267.67 119.02 267.34 117.04 267 115C266.01 115 265.02 115 264 115ZM275 115C275 117.64 275 120.28 275 123C275.66 122.67 276.32 122.34 277 122C277.658 118.971 277.658 118.971 278 116C277.01 115.67 276.02 115.34 275 115ZM352 116C351.185 118.562 350.373 121.124 349.563 123.688C349.333 124.409 349.103 125.13 348.866 125.873C348.643 126.579 348.421 127.285 348.192 128.012C347.988 128.656 347.783 129.3 347.573 129.964C346.922 132.277 346.472 134.643 346 137C349.96 137 353.92 137 358 137C356.66 129.888 354.985 122.959 353 116C352.67 116 352.34 116 352 116ZM260 118C259.01 119.485 259.01 119.485 258 121C260.31 121.66 262.62 122.32 265 123C263.35 121.35 261.7 119.7 260 118ZM280 118C279.34 120.31 278.68 122.62 278 125C279.32 124.34 280.64 123.68 282 123C282 121.68 282 120.36 282 119C281.34 118.67 280.68 118.34 280 118ZM268 121C269 123 269 123 269 123L268 121ZM256 122C255.67 123.32 255.34 124.64 255 126C257.64 126 260.28 126 263 126C260.615 124.108 258.929 122.976 256 122ZM244 123C244 124.65 244 126.3 244 128C244.33 128 244.66 128 245 128C245 126.35 245 124.7 245 123C244.67 123 244.34 123 244 123ZM284 124C282.35 125.65 280.7 127.3 279 129C282.931 128.426 282.931 128.426 286 126C285.34 125.34 284.68 124.68 284 124ZM254 127C254 128.65 254 130.3 254 132C256.97 131.34 259.94 130.68 263 130C259.813 127.875 257.735 127.498 254 127ZM278 132C278 132.33 278 132.66 278 133C280.64 133 283.28 133 286 133C286 132.01 286 131.02 286 130C283.116 130 280.706 131.059 278 132ZM260 132C257.391 132.894 257.391 132.894 255 134C255.33 134.99 255.66 135.98 256 137C257.98 135.68 259.96 134.36 262 133C261.34 132.67 260.68 132.34 260 132ZM277 135C279.175 137.5 280.731 138.436 284 139C284.33 138.01 284.66 137.02 285 136C282.36 135.67 279.72 135.34 277 135ZM259.375 137.5C258.922 137.995 258.468 138.49 258 139C258.33 139.99 258.66 140.98 259 142C261.248 139.948 262.003 138.993 263 136C260.877 135.774 260.877 135.774 259.375 137.5ZM268 138C268 140.64 268 143.28 268 146C268.99 145.67 269.98 145.34 271 145C270.34 142.69 269.68 140.38 269 138C268.67 138 268.34 138 268 138ZM264 139C263.34 140.65 262.68 142.3 262 144C262.99 144.33 263.98 144.66 265 145C265 143.02 265 141.04 265 139C264.67 139 264.34 139 264 139ZM276 139C277.32 140.32 278.64 141.64 280 143C280 142.01 280 141.02 280 140C278.68 139.67 277.36 139.34 276 139ZM272 140C272.345 142.473 272.345 142.473 273 145C273.66 145.33 274.32 145.66 275 146C275.66 145.34 276.32 144.68 277 144C275.35 142.68 273.7 141.36 272 140Z" fill="#54BBEA"/>
<path d="M41 38C47.2854 41.1978 52.878 45.017 58.5151 49.2227C64.3231 53.5409 70.2388 57.6908 76.1875 61.8125C77.1694 62.4932 78.1514 63.1739 79.1631 63.8752C81.1458 65.2493 83.1287 66.6231 85.1118 67.9966C96.0047 75.5525 106.849 83.1789 117.688 90.8125C118.413 91.3226 119.139 91.8328 119.886 92.3584C124.883 95.8833 124.883 95.8833 126 97C126.219 98.5499 126.377 100.109 126.509 101.668C126.596 102.663 126.683 103.659 126.773 104.684C126.865 105.769 126.956 106.854 127.051 107.973C127.256 110.257 127.463 112.542 127.67 114.826C127.993 118.438 128.311 122.049 128.617 125.662C128.914 129.142 129.231 132.62 129.551 136.098C129.679 137.704 129.679 137.704 129.81 139.344C130.63 147.982 132.777 154.427 139.25 160.562C140.04 161.317 140.83 162.071 141.645 162.848C144.362 165.331 147.101 167.782 149.895 170.18C153.199 173.036 156.419 175.986 159.656 178.918C161.607 180.651 163.587 182.308 165.625 183.938C166.409 184.618 167.192 185.299 168 186C168 186.66 168 187.32 168 188C153.743 187.525 143.015 178.465 131.931 170.391C129.387 168.559 126.787 166.814 124.188 165.062C119.097 161.493 115.968 157.945 114 152C113.538 149.014 113.306 146.019 113.07 143.008C112.913 141.233 112.756 139.458 112.598 137.684C112.359 134.904 112.125 132.124 111.901 129.343C111.68 126.647 111.439 123.952 111.195 121.258C111.135 120.435 111.074 119.612 111.012 118.763C110.442 112.667 109 107.762 104.327 103.46C103.751 103.138 103.175 102.816 102.582 102.484C101.537 101.892 101.537 101.892 100.471 101.287C94.0765 97.9564 87.645 94.7032 81.1738 91.5234C64.0839 82.8776 53.2316 71.7022 46 54C45.2672 52.2114 45.2672 52.2114 44.5195 50.3867C41 41.5238 41 41.5238 41 38Z" fill="#FEFEFE"/>
<path d="M300.825 104.434C304 105 304 105 306.457 107.973C307.265 109.323 308.049 110.687 308.813 112.062C309.232 112.775 309.652 113.488 310.084 114.223C310.961 115.716 311.829 117.215 312.689 118.719C314.353 121.613 316.077 124.467 317.808 127.32C319.552 130.206 321.274 133.104 323 136C323.33 125.77 323.66 115.54 324 105C326.31 105 328.62 105 331 105C333.604 108.906 333.352 112.287 333.414 116.824C333.434 117.686 333.453 118.547 333.473 119.435C333.533 122.185 333.579 124.936 333.625 127.688C333.663 129.553 333.703 131.418 333.742 133.283C333.839 137.855 333.923 142.428 334 147C334.359 145.799 334.717 144.598 335.086 143.36C336.413 138.913 337.742 134.466 339.072 130.02C339.648 128.094 340.223 126.167 340.798 124.241C341.623 121.475 342.45 118.71 343.278 115.945C343.535 115.081 343.792 114.216 344.057 113.325C344.298 112.525 344.538 111.724 344.785 110.899C345.102 109.84 345.102 109.84 345.424 108.759C346 107 346 107 347 105C350.3 105 353.6 105 357 105C359.407 110.333 361.244 115.691 362.918 121.293C363.18 122.161 363.442 123.03 363.713 123.925C364.262 125.749 364.809 127.573 365.354 129.398C366.189 132.191 367.035 134.982 367.881 137.771C368.415 139.549 368.948 141.327 369.481 143.105C369.734 143.938 369.987 144.77 370.248 145.628C370.478 146.406 370.709 147.184 370.946 147.985C371.15 148.666 371.355 149.346 371.565 150.048C372 152 372 152 372 156C369.36 156 366.72 156 364 156C363.01 152.37 362.02 148.74 361 145C352.585 145.495 352.585 145.495 344 146C342.02 150.95 342.02 150.95 340 156C334.649 156.961 329.257 157.78 324 156C318.975 152.006 316.332 145.609 313.5 140C312.663 138.455 311.821 136.914 310.973 135.375C308.903 131.616 306.963 127.823 305 124C304.67 134.56 304.34 145.12 304 156C301.69 156 299.38 156 297 156C295.403 154.403 295.865 152.724 295.855 150.512C295.849 149.557 295.842 148.603 295.836 147.62C295.835 146.581 295.833 145.543 295.832 144.473C295.829 143.413 295.826 142.354 295.822 141.263C295.817 139.017 295.815 136.772 295.815 134.527C295.813 131.081 295.795 127.635 295.776 124.189C295.773 122.013 295.771 119.837 295.77 117.66C295.763 116.624 295.755 115.587 295.748 114.519C295.751 113.562 295.754 112.604 295.757 111.617C295.756 110.772 295.755 109.927 295.753 109.056C296.166 105.626 297.586 105.083 300.825 104.434ZM352 116C351.185 118.562 350.373 121.124 349.563 123.688C349.333 124.409 349.103 125.13 348.866 125.873C348.643 126.579 348.421 127.285 348.192 128.012C347.987 128.656 347.783 129.3 347.573 129.964C346.922 132.277 346.472 134.643 346 137C349.96 137 353.92 137 358 137C356.66 129.888 354.985 122.959 353 116C352.67 116 352.34 116 352 116Z" fill="#FEFEFE"/>
<path d="M165 106C169.29 120.19 173.58 134.38 178 149C178.33 134.48 178.66 119.96 179 105C188.57 105 198.14 105 208 105C208 107.64 208 110.28 208 113C201.07 113 194.14 113 187 113C187 117.62 187 122.24 187 127C193.93 127 200.86 127 208 127C208 128.98 208 130.96 208 133C204.899 135.067 204.271 135.245 200.77 135.195C199.967 135.189 199.165 135.182 198.338 135.176C197.505 135.159 196.671 135.142 195.812 135.125C194.968 135.116 194.123 135.107 193.252 135.098C191.168 135.074 189.084 135.038 187 135C187 139.29 187 143.58 187 148C193.93 148 200.86 148 208 148C208 150.64 208 153.28 208 156C203.41 156.124 198.821 156.215 194.23 156.275C192.671 156.3 191.111 156.334 189.552 156.377C187.302 156.438 185.055 156.466 182.805 156.488C182.114 156.514 181.423 156.54 180.711 156.566C177.02 156.569 174.5 156.018 171.575 153.844C169 151 169 151 168 145C162.06 145 156.12 145 150 145C149.67 146.98 149.34 148.96 149 151C147.24 153.329 145.495 154.337 143 156C141.68 156 140.36 156 139 156C140.647 147.93 142.863 140.032 145.149 132.124C145.592 130.58 146.029 129.033 146.46 127.485C147.09 125.221 147.74 122.964 148.395 120.707C148.675 119.68 148.675 119.68 148.96 118.633C150.621 113.041 153.225 108.995 158 105.562C160 105 160 105 165 106ZM158 117C157.162 119.957 156.331 122.916 155.5 125.875C155.262 126.717 155.023 127.559 154.777 128.426C154.552 129.231 154.326 130.037 154.094 130.867C153.884 131.611 153.675 132.354 153.459 133.121C152.921 135.001 152.921 135.001 153 137C156.96 137 160.92 137 165 137C163.732 130.17 162.112 123.617 160 117C159.34 117 158.68 117 158 117Z" fill="#52BAEA"/>
<path d="M41 77C49.7741 80.1841 58.0404 84.3675 66.3662 88.5527C68.7282 89.739 71.0943 90.9168 73.4609 92.0938C77.2738 93.9965 81.07 95.9294 84.8538 97.8894C86.2597 98.6169 87.6683 99.3393 89.0798 100.056C103.531 107.441 103.531 107.441 106 115C106.762 118.499 107.097 121.93 107.312 125.5C107.385 126.418 107.458 127.336 107.533 128.281C107.708 130.52 107.863 132.759 108 135C101.833 133.978 96.186 131.483 90.4097 129.182C88.4063 128.387 86.3969 127.61 84.3867 126.832C66.962 119.981 54.4276 110.548 46.7617 93.1328C46.0631 91.4666 45.3717 89.7972 44.6875 88.125C44.3285 87.2716 43.9695 86.4183 43.5996 85.5391C41 79.2802 41 79.2802 41 77Z" fill="#52BAEA"/>
<path d="M372 105C374.875 104.875 374.875 104.875 378 105C381.007 108.007 380.317 111.403 380.344 115.438C380.358 116.273 380.373 117.109 380.388 117.97C380.45 121.555 380.49 125.139 380.532 128.724C380.565 131.337 380.61 133.95 380.656 136.562C380.661 137.377 380.667 138.192 380.672 139.031C380.569 143.487 380.569 143.487 383 147C385.793 147.358 385.793 147.358 388.937 147.312C389.998 147.329 391.059 147.346 392.152 147.363C394.91 147.208 394.91 147.208 396.65 145.997C398.797 142.82 398.441 139.391 398.441 135.684C398.454 134.871 398.468 134.059 398.481 133.222C398.522 130.627 398.544 128.033 398.562 125.438C398.586 122.839 398.614 120.241 398.654 117.642C398.678 116.025 398.693 114.408 398.698 112.791C398.775 107.225 398.775 107.225 401 105C404.125 104.875 404.125 104.875 407 105C407.074 110.729 407.128 116.458 407.165 122.188C407.18 124.135 407.2 126.083 407.226 128.03C407.263 130.835 407.28 133.64 407.293 136.445C407.308 137.311 407.324 138.177 407.34 139.069C407.341 144.14 406.834 147.615 404 152C399.287 156.158 395.503 156.627 389.5 156.5C388.4 156.523 388.4 156.523 387.277 156.547C382.1 156.51 379.043 155.473 375 152C371.264 147.38 371.609 142.987 371.707 137.324C371.711 136.399 371.715 135.474 371.72 134.521C371.736 131.576 371.774 128.632 371.812 125.688C371.827 123.687 371.841 121.686 371.853 119.686C371.886 114.79 371.938 109.895 372 105Z" fill="#FEFEFE"/>
<path d="M505.071 104.867C506.538 104.865 506.538 104.865 508.035 104.863C509.055 104.867 510.075 104.871 511.125 104.875C512.153 104.871 513.18 104.867 514.239 104.863C515.214 104.865 516.19 104.866 517.196 104.867C518.093 104.868 518.99 104.869 519.915 104.871C522 105 522 105 523 106C523.041 108.333 523.043 110.667 523 113C522.38 113.015 521.759 113.029 521.12 113.044C518.309 113.119 515.498 113.215 512.688 113.312C511.711 113.335 510.735 113.358 509.729 113.381C508.791 113.416 507.853 113.452 506.887 113.488C505.591 113.528 505.591 113.528 504.269 113.568C501.539 114.088 500.589 114.736 499 117C498.999 120.578 498.999 120.578 500 124C504.172 126.781 507.851 126.336 512.774 126.461C516.637 127.106 518.252 128.251 521 131C524.38 135.894 523.804 142.349 523 148C520.836 152.145 518.434 154.522 514 156C512.154 156.082 510.305 156.107 508.457 156.098C507.384 156.094 506.311 156.091 505.205 156.088C504.086 156.08 502.966 156.071 501.813 156.062C500.682 156.058 499.55 156.053 498.385 156.049C495.59 156.037 492.795 156.021 490 156C489.875 153.125 489.875 153.125 490 150C492.438 147.562 493.152 147.733 496.5 147.656C497.387 147.627 498.274 147.597 499.188 147.566C501.063 147.522 502.938 147.478 504.813 147.434C505.7 147.404 506.586 147.374 507.5 147.344C508.722 147.316 508.722 147.316 509.969 147.287C512.225 147.176 512.225 147.176 514 145C514.328 142.285 514.131 139.748 514 137C511.801 134.801 506.2 135.315 503.078 135.102C499.083 134.705 497.335 134.27 494.11 131.672C489.763 126.166 489.29 121.917 490 115C491.536 110.775 493.121 108.304 497 106C499.978 105.007 501.963 104.871 505.071 104.867Z" fill="#FEFEFE"/>
<path d="M470.632 104.867C471.521 104.866 472.409 104.865 473.324 104.863C474.248 104.867 475.172 104.871 476.125 104.875C477.057 104.871 477.989 104.867 478.949 104.863C479.834 104.865 480.72 104.866 481.632 104.867C482.853 104.869 482.853 104.869 484.098 104.871C486 105 486 105 487 106C487.125 109 487.125 109 487 112C485.489 113.511 484.106 113.195 482 113.281C481.195 113.319 480.391 113.356 479.562 113.395C477.854 113.465 476.145 113.535 474.437 113.605C473.633 113.643 472.828 113.68 472 113.719C470.886 113.764 470.886 113.764 469.75 113.811C467.973 113.818 467.973 113.818 467 115C466.899 117.279 466.869 119.562 466.867 121.844C466.866 122.528 466.865 123.212 466.864 123.917C466.863 125.367 466.865 126.816 466.869 128.265C466.875 130.491 466.869 132.716 466.863 134.941C466.864 136.346 466.865 137.751 466.867 139.156C466.868 140.443 466.869 141.731 466.87 143.057C466.663 145.888 466.663 145.888 468 147C471.366 147.203 474.726 147.347 478.097 147.43C481.091 147.561 483.46 147.68 486.07 149.227C487.392 151.749 486.79 153.342 486 156C482.604 156.087 479.209 156.141 475.812 156.188C474.373 156.225 474.373 156.225 472.904 156.264C463.904 156.357 463.904 156.357 460 153C457.457 149.186 457.658 146.032 457.629 141.605C457.619 140.78 457.61 139.956 457.601 139.106C457.587 137.36 457.578 135.614 457.574 133.868C457.562 131.207 457.513 128.549 457.463 125.889C457.453 124.19 457.446 122.492 457.441 120.793C457.421 120.002 457.402 119.211 457.382 118.397C457.415 114.332 457.78 111.752 460.347 108.513C463.783 105.258 466.081 104.873 470.632 104.867Z" fill="#FEFEFE"/>
<path d="M410 105C420.89 105 431.78 105 443 105C443 107.64 443 110.28 443 113C439.37 113.33 435.74 113.66 432 114C431.67 127.86 431.34 141.72 431 156C428.03 156 425.06 156 422 156C421.505 135.21 421.505 135.21 421 114C417.37 113.67 413.74 113.34 410 113C410 110.36 410 107.72 410 105Z" fill="#FEFEFE"/>
<path d="M62 122C66.2599 122.668 69.887 124.097 73.8398 125.801C74.8067 126.217 74.8067 126.217 75.7931 126.642C77.1515 127.229 78.5087 127.818 79.865 128.41C81.9242 129.307 83.9881 130.192 86.0527 131.076C87.3779 131.65 88.7028 132.225 90.0273 132.801C91.8177 133.577 91.8177 133.577 93.6443 134.368C100.483 137.694 104.897 141.044 108 148C108.632 150.732 108.849 153.183 109 156C101.637 154.19 94.4044 151.939 87.1875 149.625C86.2804 149.345 85.3733 149.065 84.4387 148.777C76.999 146.35 72.0992 143.528 68.4453 136.355C67.6565 134.64 66.8833 132.917 66.125 131.188C65.7228 130.304 65.3206 129.42 64.9062 128.51C63.9236 126.346 62.9555 124.176 62 122Z" fill="#FEFEFE"/>
<path d="M274 115C274.33 115 274.66 115 275 115C275.33 117.31 275.66 119.62 276 122C276.66 120.35 277.32 118.7 278 117C278.66 117.33 279.32 117.66 280 118C279.67 119.98 279.34 121.96 279 124C280.65 123.34 282.3 122.68 284 122C283.494 124.169 283 126 282 128C283.32 127.67 284.64 127.34 286 127C286 127.99 286 128.98 286 130C284.35 130.66 282.7 131.32 281 132C282.65 132.33 284.3 132.66 286 133C285.67 133.99 285.34 134.98 285 136C282.69 136 280.38 136 278 136C279.65 136.66 281.3 137.32 283 138C282.67 138.99 282.34 139.98 282 141C280.35 140.67 278.7 140.34 277 140C277.66 141.32 278.32 142.64 279 144C276 144 276 144 274.312 142.5C273.879 142.005 273.446 141.51 273 141C273.33 142.65 273.66 144.3 274 146C272.062 145.688 272.062 145.688 270 145C269.67 144.01 269.34 143.02 269 142C268.34 142.33 267.68 142.66 267 143C263.843 141.422 263.058 138.777 261.699 135.621C260.526 131.222 261.316 127.182 263 123C264.465 121.336 264.465 121.336 266 120C266.66 119.34 267.32 118.68 268 118C268.99 118 269.98 118 271 118C271.33 118.66 271.66 119.32 272 120C272.66 118.35 273.32 116.7 274 115ZM268 121C269 123 269 123 269 123L268 121Z" fill="#FBFDFE"/>
<path d="M446 105C448.875 104.875 448.875 104.875 452 105C454 107 454 107 454.241 109.101C454.236 109.967 454.232 110.833 454.227 111.725C454.227 113.196 454.227 113.196 454.227 114.697C454.217 115.759 454.206 116.82 454.196 117.914C454.193 118.999 454.19 120.084 454.187 121.201C454.176 124.676 454.151 128.15 454.125 131.625C454.115 133.977 454.106 136.328 454.098 138.68C454.076 144.453 454.042 150.227 454 156C451.125 156.125 451.125 156.125 448 156C446 154 446 154 445.76 151.899C445.764 151.033 445.769 150.167 445.773 149.275C445.773 147.804 445.773 147.804 445.774 146.303C445.784 145.241 445.794 144.18 445.805 143.086C445.808 142.001 445.811 140.916 445.814 139.799C445.825 136.324 445.85 132.85 445.875 129.375C445.885 127.023 445.894 124.672 445.903 122.32C445.925 116.547 445.958 110.773 446 105Z" fill="#FEFEFE"/>
<path d="M272 81C273.32 81.33 274.64 81.66 276 82C277.803 85.8787 278.787 89.8842 280 94C281.65 89.71 283.3 85.42 285 81C285.99 81 286.98 81 288 81C288 87.27 288 93.54 288 100C287.34 100 286.68 100 286 100C285.67 97.03 285.34 94.06 285 91C283.68 93.97 282.36 96.94 281 100C280.01 99.67 279.02 99.34 278 99C276.812 95.9375 276.812 95.9375 276 93C275.34 95.31 274.68 97.62 274 100C273.34 99.67 272.68 99.34 272 99C272 93.06 272 87.12 272 81Z" fill="#FEFEFE"/>
<path d="M247.945 80.8047C249.963 80.8698 251.982 80.9349 254 81C254 81.99 254 82.98 254 84C251.36 84 248.72 84 246 84C246 85.65 246 87.3 246 89C247.98 89 249.96 89 252 89C252 88.34 252 87.68 252 87C252.99 87 253.98 87 255 87C256.536 91.0965 255.69 94.7882 255 99C254 100 254 100 250.625 100.188C247 100 247 100 244 98C243.723 95.4057 243.627 93.0874 243.687 90.5C243.684 89.8104 243.681 89.1207 243.677 88.4102C243.755 81.2254 243.755 81.2254 247.945 80.8047ZM246 92C246 93.65 246 95.3 246 97C247.98 97 249.96 97 252 97C252 95.35 252 93.7 252 92C250.02 92 248.04 92 246 92Z" fill="#FEFEFE"/>
<path d="M339 81C342.63 81 346.26 81 350 81C350 81.99 350 82.98 350 84C347.36 84 344.72 84 342 84C342 85.65 342 87.3 342 89C344.64 89 347.28 89 350 89C350 89.99 350 90.98 350 92C347.36 92 344.72 92 342 92C342 93.65 342 95.3 342 97C344.64 97 347.28 97 350 97C350 97.99 350 98.98 350 100C348.354 100.027 346.709 100.046 345.063 100.062C344.146 100.074 343.23 100.086 342.285 100.098C340 100 340 100 339 99C338.914 97.6573 338.893 96.3103 338.902 94.9648C338.906 94.156 338.909 93.3471 338.912 92.5137C338.921 91.6635 338.929 90.8134 338.938 89.9375C338.942 89.0835 338.947 88.2295 338.951 87.3496C338.963 85.233 338.981 83.1165 339 81Z" fill="#FEFEFE"/>
<path d="M357 81C358.609 80.9587 360.217 80.9175 361.875 80.875C362.78 80.8518 363.685 80.8286 364.617 80.8047C367 81 367 81 369 83C369.25 86.5 369.25 86.5 369 90C368.34 90.66 367.68 91.32 367 92C367.66 94.31 368.32 96.62 369 99C368.01 99 367.02 99 366 99C365.34 96.69 364.68 94.38 364 92C362.35 92 360.7 92 359 92C359 94.64 359 97.28 359 100C358.34 100 357.68 100 357 100C357 93.73 357 87.46 357 81ZM359 84C359 85.65 359 87.3 359 89C361.31 89 363.62 89 366 89C366 87.35 366 85.7 366 84C363.69 84 361.38 84 359 84Z" fill="#FEFEFE"/>
<path d="M178 81C179.609 80.9587 181.217 80.9175 182.875 80.875C183.78 80.8518 184.685 80.8286 185.617 80.8047C188 81 188 81 190 83C190.25 86.5 190.25 86.5 190 90C189.34 90.66 188.68 91.32 188 92C188.66 94.31 189.32 96.62 190 99C189.01 99 188.02 99 187 99C186.34 96.69 185.68 94.38 185 92C183.35 92 181.7 92 180 92C180 94.64 180 97.28 180 100C179.34 100 178.68 100 178 100C178 93.73 178 87.46 178 81ZM180 84C180 85.65 180 87.3 180 89C182.31 89 184.62 89 187 89C187 87.35 187 85.7 187 84C184.69 84 182.38 84 180 84Z" fill="#FEFEFE"/>
<path d="M300 76C300.66 76 301.32 76 302 76C302 77.32 302 78.64 302 80C303.32 80.66 304.64 81.32 306 82C305.67 82.66 305.34 83.32 305 84C302.36 84 299.72 84 297 84C297 85.65 297 87.3 297 89C299.64 89 302.28 89 305 89C305 89.99 305 90.98 305 92C302.36 92 299.72 92 297 92C297 93.65 297 95.3 297 97C299.64 97 302.28 97 305 97C305 97.99 305 98.98 305 100C301.7 100 298.4 100 295 100C295 93.73 295 87.46 295 81C296.32 81 297.64 81 299 81C299.33 79.35 299.66 77.7 300 76Z" fill="#FEFEFE"/>
<path d="M380.383 80.8047C381.288 80.8279 382.193 80.8511 383.125 80.875C384.49 80.9021 384.49 80.9021 385.883 80.9297C386.581 80.9529 387.28 80.9761 388 81C387.67 81.99 387.34 82.98 387 84C384.03 84 381.06 84 378 84C378 85.65 378 87.3 378 89C379.918 88.9381 379.918 88.9381 381.875 88.875C384.055 88.8047 384.055 88.8047 386 89C388 91 388 91 388.312 94.5C388.158 96.2325 388.158 96.2325 388 98C384.796 100.136 383.981 100.231 380.312 100.125C379.1 100.098 379.1 100.098 377.863 100.07C377.248 100.047 376.634 100.024 376 100C376 99.01 376 98.02 376 97C378.97 97 381.94 97 385 97C385 95.35 385 93.7 385 92C383.608 92.0619 383.608 92.0619 382.188 92.125C379 92 379 92 376 90C375.688 86.5 375.688 86.5 376 83C378 81 378 81 380.383 80.8047Z" fill="#FEFEFE"/>
<path d="M219.383 80.8047C220.288 80.8279 221.193 80.8511 222.125 80.875C223.49 80.9021 223.49 80.9021 224.883 80.9297C225.581 80.9529 226.28 80.9761 227 81C227 81.99 227 82.98 227 84C224.03 84 221.06 84 218 84C218 85.65 218 87.3 218 89C219.114 88.9587 220.227 88.9175 221.375 88.875C225 89 225 89 227 91C227.312 94.5 227.312 94.5 227 98C223.911 100.059 223.291 100.239 219.812 100.125C218.554 100.084 217.296 100.043 216 100C215.67 99.01 215.34 98.02 215 97C218.3 97 221.6 97 225 97C225 95.35 225 93.7 225 92C223.907 92.0619 222.814 92.1238 221.687 92.1875C218 92 218 92 216.062 90.875C214.519 88.1505 214.673 86.0711 215 83C217 81 217 81 219.383 80.8047Z" fill="#FEFEFE"/>
<path d="M267 125C270.5 125.188 270.5 125.188 274 126C276 129 276 129 275.813 132.062C275 135 275 135 272 137C268.938 136.812 268.938 136.812 266 136C264 133 264 133 264.25 129.938C265 127 265 127 267 125Z" fill="#5ABDEB"/>
<path d="M164 81C165.32 81.33 166.64 81.66 168 82C168.673 84.248 169.338 86.4985 170 88.75C170.557 90.6295 170.557 90.6295 171.125 92.5469C172 96 172 96 172 100C171.34 100 170.68 100 170 100C169.67 98.35 169.34 96.7 169 95C166.69 95 164.38 95 162 95C161.67 96.65 161.34 98.3 161 100C160.34 100 159.68 100 159 100C160.162 93.4515 161.734 87.2546 164 81ZM165 86C164.67 87.98 164.34 89.96 164 92C165.32 91.67 166.64 91.34 168 91C167.34 89.35 166.68 87.7 166 86C165.67 86 165.34 86 165 86Z" fill="#FEFEFE"/>
<path d="M312 81C315.96 81 319.92 81 324 81C324 81.99 324 82.98 324 84C322.68 84 321.36 84 320 84C320 88.95 320 93.9 320 99C319.01 99 318.02 99 317 99C317 94.05 317 89.1 317 84C315.35 83.67 313.7 83.34 312 83C312 82.34 312 81.68 312 81Z" fill="#FEFEFE"/>
<path d="M196 81C199.96 81 203.92 81 208 81C208 81.99 208 82.98 208 84C206.68 84 205.36 84 204 84C204 88.95 204 93.9 204 99C203.01 99 202.02 99 201 99C201 94.05 201 89.1 201 84C199.35 83.67 197.7 83.34 196 83C196 82.34 196 81.68 196 81Z" fill="#FEFEFE"/>
<path d="M331 81C331.66 81 332.32 81 333 81C333 87.27 333 93.54 333 100C332.34 100 331.68 100 331 100C331 93.73 331 87.46 331 81Z" fill="#FEFEFE"/>
<path d="M259 134C259.99 134 260.98 134 262 134C260.63 137.161 260.011 137.993 257 140C257 136 257 136 259 134Z" fill="#7EC8EF"/>
<path d="M261 130C260.67 130.99 260.34 131.98 260 133C258.02 133.33 256.04 133.66 254 134C254.33 133.01 254.66 132.02 255 131C258 130 258 130 261 130Z" fill="#7BC7EE"/>
<path d="M255 126C257.31 126 259.62 126 262 126C262 126.99 262 127.98 262 129C259.69 129 257.38 129 255 129C255 128.01 255 127.02 255 126Z" fill="#77C6EE"/>
</g>
<defs>
<clipPath id="clip0_809_61">
<rect width="574" height="226" fill="white"/>
</clipPath>
</defs>
</svg>
