<?xml version="1.0" encoding="UTF-8"?>
<svg version="1.1" xmlns="http://www.w3.org/2000/svg" width="571" height="571">
<path d="M0 0 C1.39412109 -0.0299707 1.39412109 -0.0299707 2.81640625 -0.06054688 C8.96618219 -0.05619767 12.85267847 0.60565078 17.75 4.4375 C19.30859375 7.234375 19.30859375 7.234375 20.1875 10.1875 C20.49558594 11.17234375 20.80367187 12.1571875 21.12109375 13.171875 C21.32863281 13.91953125 21.53617188 14.6671875 21.75 15.4375 C22.0903125 14.84582031 22.430625 14.25414062 22.78125 13.64453125 C26.91532902 6.90466306 31.20486521 2.95254493 38.75 0.4375 C55.41607308 -0.76846733 55.41607308 -0.76846733 61.75 4.4375 C65.48565734 8.06897567 68.56460586 11.68479818 70.75 16.4375 C70.82347656 14.95636719 70.82347656 14.95636719 70.8984375 13.4453125 C70.97320312 12.16398437 71.04796875 10.88265625 71.125 9.5625 C71.19460938 8.28632813 71.26421875 7.01015625 71.3359375 5.6953125 C71.75 2.4375 71.75 2.4375 73.75 0.4375 C76.57421875 -0.12890625 76.57421875 -0.12890625 79.75 0.4375 C81.71128152 2.81037001 83.08785898 4.84601072 84.5625 7.5 C84.98192871 8.21285156 85.40135742 8.92570313 85.83349609 9.66015625 C86.71084354 11.15384931 87.57919176 12.65286072 88.43896484 14.15673828 C90.10222719 17.05025724 91.82693791 19.90417834 93.55786133 22.75756836 C95.30137981 25.64318031 97.02360471 28.54161113 98.75 31.4375 C99.08 21.2075 99.41 10.9775 99.75 0.4375 C102.06 0.4375 104.37 0.4375 106.75 0.4375 C109.35368313 4.3430247 109.10148497 7.72413889 109.1640625 12.26171875 C109.18342865 13.12311966 109.2027948 13.98452057 109.2227478 14.87202454 C109.2825203 17.62291568 109.32891948 20.37384873 109.375 23.125 C109.41318194 24.99025261 109.4522338 26.85548763 109.4921875 28.72070312 C109.5882199 33.29282586 109.6722595 37.86503114 109.75 42.4375 C110.10827881 41.23625488 110.46655762 40.03500977 110.83569336 38.79736328 C112.16261631 34.35019388 113.49194985 29.90374813 114.82202148 25.45751953 C115.39787766 23.53128468 115.97307564 21.60485294 116.54760742 19.67822266 C117.37246429 16.91256795 118.19966821 14.14762477 119.02734375 11.3828125 C119.41332985 10.0858696 119.41332985 10.0858696 119.80711365 8.76272583 C120.04728714 7.96204681 120.28746063 7.1613678 120.53491211 6.33642578 C120.74587021 5.6302713 120.95682831 4.92411682 121.17417908 4.19656372 C121.75 2.4375 121.75 2.4375 122.75 0.4375 C126.05 0.4375 129.35 0.4375 132.75 0.4375 C135.15705399 5.77030426 136.99326236 11.12821007 138.66796875 16.73046875 C138.93007645 17.59891922 139.19218414 18.46736969 139.4622345 19.36213684 C140.01131983 21.18603288 140.55830006 23.01056388 141.10327148 24.83569336 C141.93869156 27.62898407 142.78438499 30.41902639 143.63085938 33.20898438 C144.16468507 34.98679235 144.6979093 36.76478105 145.23046875 38.54296875 C145.48354294 39.3753154 145.73661713 40.20766205 145.99736023 41.06523132 C146.22792618 41.84316544 146.45849213 42.62109955 146.69604492 43.42260742 C146.90017502 44.10320724 147.10430511 44.78380707 147.31462097 45.48503113 C147.75 47.4375 147.75 47.4375 147.75 51.4375 C145.11 51.4375 142.47 51.4375 139.75 51.4375 C138.76 47.8075 137.77 44.1775 136.75 40.4375 C128.335 40.9325 128.335 40.9325 119.75 41.4375 C118.43 44.7375 117.11 48.0375 115.75 51.4375 C110.39846506 52.39897353 105.00643384 53.21745643 99.75 51.4375 C94.72508879 47.44372077 92.08138388 41.04615739 89.25 35.4375 C88.41316758 33.89277798 87.57076205 32.35106139 86.72265625 30.8125 C84.65303324 27.05396742 82.7128985 23.2608849 80.75 19.4375 C80.42 29.9975 80.09 40.5575 79.75 51.4375 C77.44 51.4375 75.13 51.4375 72.75 51.4375 C70.69077598 49.37827598 71.33572421 45.22041876 71.1875 42.375 C71.14431641 41.61638672 71.10113281 40.85777344 71.05664062 40.07617188 C70.95026367 38.19684562 70.84960066 36.31719756 70.75 34.4375 C70.481875 35.01757812 70.21375 35.59765625 69.9375 36.1953125 C66.35374405 43.33924706 62.11301985 47.25599007 55 50.8125 C46.69852022 52.40893842 39.4488436 52.32525658 32.00390625 48.03515625 C24.06420859 42.40719032 21.22800426 35.67229848 18.75 26.4375 C18.13125 26.9325 17.5125 27.4275 16.875 27.9375 C14.75 29.4375 14.75 29.4375 12.75 29.4375 C12.99234375 30.06841553 13.2346875 30.69933105 13.484375 31.34936523 C14.57463311 34.19058834 15.66234935 37.03277777 16.75 39.875 C17.1315625 40.86822266 17.513125 41.86144531 17.90625 42.88476562 C18.2671875 43.82900391 18.628125 44.77324219 19 45.74609375 C19.33515625 46.62064209 19.6703125 47.49519043 20.015625 48.39624023 C20.75 50.4375 20.75 50.4375 20.75 51.4375 C14.79296875 51.92578125 14.79296875 51.92578125 12.75 51.4375 C9.83282527 47.64517285 8.28038767 43.05757436 6.5625 38.625 C6.28986328 37.93212891 6.01722656 37.23925781 5.73632812 36.52539062 C5.07025017 34.83098179 4.40957027 33.13445263 3.75 31.4375 C1.11 31.1075 -1.53 30.7775 -4.25 30.4375 C-4.25 37.3675 -4.25 44.2975 -4.25 51.4375 C-7.22 51.4375 -10.19 51.4375 -13.25 51.4375 C-13.3240655 44.65651858 -13.37856234 37.87577175 -13.41479492 31.09448242 C-13.42989676 28.78682352 -13.45037969 26.47919339 -13.47631836 24.17163086 C-13.51263975 20.85783801 -13.52971236 17.54442408 -13.54296875 14.23046875 C-13.55845261 13.1960112 -13.57393646 12.16155365 -13.58988953 11.0957489 C-13.59011612 10.1349794 -13.59034271 9.1742099 -13.59057617 8.18432617 C-13.59723801 7.33827316 -13.60389984 6.49222015 -13.61076355 5.62052917 C-12.45504322 -1.37289132 -5.51326314 -0.04136828 0 0 Z M-4.25 8.4375 C-4.25 13.0575 -4.25 17.6775 -4.25 22.4375 C-2.3525 22.47875 -0.455 22.52 1.5 22.5625 C2.56734375 22.58570313 3.6346875 22.60890625 4.734375 22.6328125 C7.67470106 22.44237687 9.27361878 21.96420104 11.75 20.4375 C11.83090971 18.81331255 11.88914995 17.18798255 11.9375 15.5625 C11.97230469 14.65757812 12.00710937 13.75265625 12.04296875 12.8203125 C11.89794922 11.64082031 11.89794922 11.64082031 11.75 10.4375 C8.11804504 8.01619669 6.36650652 8.22727215 2.0625 8.3125 C-0.020625 8.35375 -2.10375 8.395 -4.25 8.4375 Z M43.75 9.4375 C44.059375 9.97375 44.36875 10.51 44.6875 11.0625 C45.92827439 13.8359957 46.3409675 16.43792837 46.75 19.4375 C48.55411967 16.67825815 48.7627245 15.54777897 48.375 12.1875 C48.16875 11.28 47.9625 10.3725 47.75 9.4375 C46.43 9.4375 45.11 9.4375 43.75 9.4375 Z M39.75 10.4375 C39.09 11.0975 38.43 11.7575 37.75 12.4375 C40.72 14.4175 40.72 14.4175 43.75 16.4375 C43.42 14.4575 43.09 12.4775 42.75 10.4375 C41.76 10.4375 40.77 10.4375 39.75 10.4375 Z M50.75 10.4375 C50.75 13.0775 50.75 15.7175 50.75 18.4375 C51.41 18.1075 52.07 17.7775 52.75 17.4375 C53.40772428 14.40815509 53.40772428 14.40815509 53.75 11.4375 C52.76 11.1075 51.77 10.7775 50.75 10.4375 Z M127.75 11.4375 C126.93428782 13.99901683 126.12233869 16.56162628 125.3125 19.125 C125.08240234 19.84623047 124.85230469 20.56746094 124.61523438 21.31054688 C124.39287109 22.01630859 124.17050781 22.72207031 123.94140625 23.44921875 C123.73717041 24.09334717 123.53293457 24.73747559 123.32250977 25.40112305 C122.67205531 27.71474379 122.22132922 30.08085392 121.75 32.4375 C125.71 32.4375 129.67 32.4375 133.75 32.4375 C132.41006673 25.32554649 130.73449429 18.39645997 128.75 11.4375 C128.42 11.4375 128.09 11.4375 127.75 11.4375 Z M35.75 13.4375 C34.76 14.9225 34.76 14.9225 33.75 16.4375 C36.06 17.0975 38.37 17.7575 40.75 18.4375 C39.1 16.7875 37.45 15.1375 35.75 13.4375 Z M55.75 13.4375 C55.09 15.7475 54.43 18.0575 53.75 20.4375 C55.07 19.7775 56.39 19.1175 57.75 18.4375 C57.75 17.1175 57.75 15.7975 57.75 14.4375 C57.09 14.1075 56.43 13.7775 55.75 13.4375 Z M43.75 16.4375 C44.75 18.4375 44.75 18.4375 44.75 18.4375 Z M31.75 17.4375 C31.42 18.7575 31.09 20.0775 30.75 21.4375 C33.39 21.4375 36.03 21.4375 38.75 21.4375 C36.36426621 19.54536631 34.67824652 18.41358217 31.75 17.4375 Z M19.75 18.4375 C19.75 20.0875 19.75 21.7375 19.75 23.4375 C20.08 23.4375 20.41 23.4375 20.75 23.4375 C20.75 21.7875 20.75 20.1375 20.75 18.4375 C20.42 18.4375 20.09 18.4375 19.75 18.4375 Z M59.75 19.4375 C58.1 21.0875 56.45 22.7375 54.75 24.4375 C58.68075644 23.86297254 58.68075644 23.86297254 61.75 21.4375 C61.09 20.7775 60.43 20.1175 59.75 19.4375 Z M29.75 22.4375 C29.75 24.0875 29.75 25.7375 29.75 27.4375 C32.72 26.7775 35.69 26.1175 38.75 25.4375 C35.56237635 23.31241756 33.48487777 22.9354837 29.75 22.4375 Z M53.75 27.4375 C53.75 27.7675 53.75 28.0975 53.75 28.4375 C56.39 28.4375 59.03 28.4375 61.75 28.4375 C61.75 27.4475 61.75 26.4575 61.75 25.4375 C58.86604263 25.4375 56.45522185 26.49655327 53.75 27.4375 Z M35.75 27.4375 C33.14068734 28.33113605 33.14068734 28.33113605 30.75 29.4375 C31.08 30.4275 31.41 31.4175 31.75 32.4375 C33.73 31.1175 35.71 29.7975 37.75 28.4375 C37.09 28.1075 36.43 27.7775 35.75 27.4375 Z M52.75 30.4375 C54.92424117 32.93787734 56.48045798 33.87378586 59.75 34.4375 C60.08 33.4475 60.41 32.4575 60.75 31.4375 C58.11 31.1075 55.47 30.7775 52.75 30.4375 Z M35.125 32.9375 C34.67125 33.4325 34.2175 33.9275 33.75 34.4375 C34.08 35.4275 34.41 36.4175 34.75 37.4375 C36.9977975 35.38516315 37.7522242 34.43082739 38.75 31.4375 C36.62635519 31.21140663 36.62635519 31.21140663 35.125 32.9375 Z M43.75 33.4375 C43.75 36.0775 43.75 38.7175 43.75 41.4375 C44.74 41.1075 45.73 40.7775 46.75 40.4375 C46.09 38.1275 45.43 35.8175 44.75 33.4375 C44.42 33.4375 44.09 33.4375 43.75 33.4375 Z M39.75 34.4375 C39.09 36.0875 38.43 37.7375 37.75 39.4375 C38.74 39.7675 39.73 40.0975 40.75 40.4375 C40.75 38.4575 40.75 36.4775 40.75 34.4375 C40.42 34.4375 40.09 34.4375 39.75 34.4375 Z M51.75 34.4375 C53.07 35.7575 54.39 37.0775 55.75 38.4375 C55.75 37.4475 55.75 36.4575 55.75 35.4375 C54.43 35.1075 53.11 34.7775 51.75 34.4375 Z M47.75 35.4375 C48.09444881 37.91016765 48.09444881 37.91016765 48.75 40.4375 C49.41 40.7675 50.07 41.0975 50.75 41.4375 C51.41 40.7775 52.07 40.1175 52.75 39.4375 C51.1 38.1175 49.45 36.7975 47.75 35.4375 Z " fill="#54BBEA" transform="translate(212.25,244.5625)"/>
<path d="M0 0 C6.28540621 3.19783825 11.8779706 7.01698956 17.51513672 11.22265625 C23.32309692 15.5409261 29.23877916 19.69077338 35.1875 23.8125 C36.16944336 24.49320557 37.15138672 25.17391113 38.16308594 25.87524414 C40.14581302 27.24928765 42.1287223 28.62306828 44.11181641 29.99658203 C55.00465227 37.55250858 65.84902592 45.17886447 76.6875 52.8125 C77.41308105 53.32264648 78.13866211 53.83279297 78.88623047 54.35839844 C83.88330766 57.88330766 83.88330766 57.88330766 85 59 C85.21914712 60.54987803 85.37686963 62.10850774 85.5090332 63.66821289 C85.59615067 64.66337418 85.68326813 65.65853546 85.77302551 66.68385315 C85.86468491 67.76915817 85.9563443 68.8544632 86.05078125 69.97265625 C86.25646163 72.25722457 86.46286529 74.54172787 86.66992188 76.82617188 C86.99301403 80.43750448 87.31135869 84.04900651 87.61694336 87.66186523 C87.91354219 91.14194222 88.23060674 94.61967936 88.55078125 98.09765625 C88.6791613 99.70435936 88.6791613 99.70435936 88.81013489 101.34352112 C89.6302719 109.98213516 91.77695597 116.42707877 98.25 122.5625 C99.04019531 123.31660156 99.83039063 124.07070313 100.64453125 124.84765625 C103.36236186 127.33111341 106.10081109 129.78188377 108.89453125 132.1796875 C112.19878231 135.03642403 115.41916914 137.9856131 118.65625 140.91796875 C120.60741494 142.6512536 122.58743825 144.30841172 124.625 145.9375 C125.40875 146.618125 126.1925 147.29875 127 148 C127 148.66 127 149.32 127 150 C112.74269275 149.52475643 102.01469579 140.46462614 90.93115234 132.390625 C88.3872457 130.55875493 85.78737928 128.81367423 83.1875 127.0625 C78.09686235 123.49300365 74.96761662 119.94469285 73 114 C72.53774041 111.01431155 72.30554974 108.01882724 72.0703125 105.0078125 C71.91326675 103.23302804 71.75569838 101.45828976 71.59765625 99.68359375 C71.35870145 96.90396555 71.12493011 94.1241326 70.90087891 91.34326172 C70.68042228 88.64661326 70.43917832 85.9524311 70.1953125 83.2578125 C70.13473663 82.4346756 70.07416077 81.6115387 70.01174927 80.76345825 C69.44168332 74.66701748 67.99993489 69.76216455 63.32739258 65.45996094 C62.75142334 65.13801758 62.1754541 64.81607422 61.58203125 64.484375 C60.53716553 63.89172852 60.53716553 63.89172852 59.47119141 63.28710938 C53.07646032 59.9564413 46.64495917 56.70324842 40.17382812 53.5234375 C23.08390045 44.87760562 12.23161852 33.7021873 5 16 C4.26716797 14.21142578 4.26716797 14.21142578 3.51953125 12.38671875 C0 3.52380952 0 3.52380952 0 0 Z " fill="#FEFEFE" transform="translate(29,178)"/>
<path d="M0 0 C3.17578125 0.56640625 3.17578125 0.56640625 5.6328125 3.5390625 C6.44029216 4.88924126 7.22418021 6.25371328 7.98828125 7.62890625 C8.40770996 8.34175781 8.82713867 9.05460938 9.25927734 9.7890625 C10.13662479 11.28275556 11.00497301 12.78176697 11.86474609 14.28564453 C13.52800844 17.17916349 15.25271916 20.03308459 16.98364258 22.88647461 C18.72716106 25.77208656 20.44938596 28.67051738 22.17578125 31.56640625 C22.50578125 21.33640625 22.83578125 11.10640625 23.17578125 0.56640625 C25.48578125 0.56640625 27.79578125 0.56640625 30.17578125 0.56640625 C32.77946438 4.47193095 32.52726622 7.85304514 32.58984375 12.390625 C32.6092099 13.25202591 32.62857605 14.11342682 32.64852905 15.00093079 C32.70830155 17.75182193 32.75470073 20.50275498 32.80078125 23.25390625 C32.83896319 25.11915886 32.87801505 26.98439388 32.91796875 28.84960938 C33.01400115 33.42173211 33.09804075 37.99393739 33.17578125 42.56640625 C33.53406006 41.36516113 33.89233887 40.16391602 34.26147461 38.92626953 C35.58839756 34.47910013 36.9177311 30.03265438 38.24780273 25.58642578 C38.82365891 23.66019093 39.39885689 21.73375919 39.97338867 19.80712891 C40.79824554 17.0414742 41.62544946 14.27653102 42.453125 11.51171875 C42.71044907 10.64709015 42.96777313 9.78246155 43.2328949 8.89163208 C43.47306839 8.09095306 43.71324188 7.29027405 43.96069336 6.46533203 C44.27713051 5.40610031 44.27713051 5.40610031 44.59996033 4.32546997 C45.17578125 2.56640625 45.17578125 2.56640625 46.17578125 0.56640625 C49.47578125 0.56640625 52.77578125 0.56640625 56.17578125 0.56640625 C58.58283524 5.89921051 60.41904361 11.25711632 62.09375 16.859375 C62.3558577 17.72782547 62.61796539 18.59627594 62.88801575 19.49104309 C63.43710108 21.31493913 63.98408131 23.13947013 64.52905273 24.96459961 C65.36447281 27.75789032 66.21016624 30.54793264 67.05664062 33.33789062 C67.59046632 35.1156986 68.12369055 36.8936873 68.65625 38.671875 C68.90932419 39.50422165 69.16239838 40.3365683 69.42314148 41.19413757 C69.65370743 41.97207169 69.88427338 42.7500058 70.12182617 43.55151367 C70.32595627 44.23211349 70.53008636 44.91271332 70.74040222 45.61393738 C71.17578125 47.56640625 71.17578125 47.56640625 71.17578125 51.56640625 C68.53578125 51.56640625 65.89578125 51.56640625 63.17578125 51.56640625 C62.18578125 47.93640625 61.19578125 44.30640625 60.17578125 40.56640625 C51.76078125 41.06140625 51.76078125 41.06140625 43.17578125 41.56640625 C41.19578125 46.51640625 41.19578125 46.51640625 39.17578125 51.56640625 C33.82424631 52.52787978 28.43221509 53.34636268 23.17578125 51.56640625 C18.15087004 47.57262702 15.50716513 41.17506364 12.67578125 35.56640625 C11.83894883 34.02168423 10.9965433 32.47996764 10.1484375 30.94140625 C8.07881449 27.18287367 6.13867975 23.38979115 4.17578125 19.56640625 C3.84578125 30.12640625 3.51578125 40.68640625 3.17578125 51.56640625 C0.86578125 51.56640625 -1.44421875 51.56640625 -3.82421875 51.56640625 C-5.42157097 49.96905403 -4.9594964 48.29066241 -4.96948242 46.07836914 C-4.97586227 45.12390396 -4.98224213 44.16943878 -4.98881531 43.18605042 C-4.98992813 42.1475444 -4.99104095 41.10903839 -4.9921875 40.0390625 C-4.9955159 38.97981064 -4.9988443 37.92055878 -5.00227356 36.82920837 C-5.00734744 34.58381587 -5.00968174 32.3384158 -5.00952148 30.09301758 C-5.01170716 26.64717247 -5.02985596 23.20164773 -5.04882812 19.75585938 C-5.05176204 17.57942818 -5.05374685 15.40299546 -5.0546875 13.2265625 C-5.06187302 12.19008072 -5.06905853 11.15359894 -5.07646179 10.08570862 C-5.07338516 9.12809128 -5.07030853 8.17047394 -5.06713867 7.18383789 C-5.06856369 6.33858047 -5.06998871 5.49332306 -5.07145691 4.62245178 C-4.65898703 1.19233059 -3.238773 0.64954645 0 0 Z M51.17578125 11.56640625 C50.36006907 14.12792308 49.54811994 16.69053253 48.73828125 19.25390625 C48.50818359 19.97513672 48.27808594 20.69636719 48.04101562 21.43945312 C47.81865234 22.14521484 47.59628906 22.85097656 47.3671875 23.578125 C47.16295166 24.22225342 46.95871582 24.86638184 46.74829102 25.5300293 C46.09783656 27.84365004 45.64711047 30.20976017 45.17578125 32.56640625 C49.13578125 32.56640625 53.09578125 32.56640625 57.17578125 32.56640625 C55.83584798 25.45445274 54.16027554 18.52536622 52.17578125 11.56640625 C51.84578125 11.56640625 51.51578125 11.56640625 51.17578125 11.56640625 Z " fill="#FEFEFE" transform="translate(288.82421875,244.43359375)"/>
<path d="M0 0 C4.29 14.19 8.58 28.38 13 43 C13.33 28.48 13.66 13.96 14 -1 C23.57 -1 33.14 -1 43 -1 C43 1.64 43 4.28 43 7 C36.07 7 29.14 7 22 7 C22 11.62 22 16.24 22 21 C28.93 21 35.86 21 43 21 C43 22.98 43 24.96 43 27 C39.89914429 29.06723714 39.27068319 29.24497423 35.76953125 29.1953125 C34.96708984 29.18886719 34.16464844 29.18242187 33.33789062 29.17578125 C32.50451172 29.15902344 31.67113281 29.14226562 30.8125 29.125 C29.96751953 29.11597656 29.12253906 29.10695313 28.25195312 29.09765625 C26.16784757 29.07410703 24.08388783 29.03823647 22 29 C22 33.29 22 37.58 22 42 C28.93 42 35.86 42 43 42 C43 44.64 43 47.28 43 50 C38.41025538 50.1241194 33.82149914 50.21457876 29.23046875 50.2746582 C27.67072521 50.29971627 26.1110981 50.33377301 24.55175781 50.37719727 C22.30244157 50.43824193 20.0546844 50.46629426 17.8046875 50.48828125 C17.1138205 50.51408768 16.42295349 50.5398941 15.71115112 50.56648254 C12.02044234 50.56859364 9.49991437 50.01845841 6.57470703 47.84448242 C4 45 4 45 3 39 C-2.94 39 -8.88 39 -15 39 C-15.33 40.98 -15.66 42.96 -16 45 C-17.76009483 47.32874086 -19.5048524 48.33656827 -22 50 C-23.32 50 -24.64 50 -26 50 C-24.35287339 41.92999979 -22.13676919 34.03194431 -19.85131836 26.12426758 C-19.40775331 24.57953884 -18.97060083 23.03295473 -18.53979492 21.48461914 C-17.90961093 19.22097912 -17.25975159 16.96380771 -16.60546875 14.70703125 C-16.32548286 13.68027031 -16.32548286 13.68027031 -16.0398407 12.63276672 C-14.37935202 7.04094581 -11.77522943 2.99469615 -7 -0.4375 C-5 -1 -5 -1 0 0 Z M-7 11 C-7.83752161 13.95716407 -8.66930031 16.915913 -9.5 19.875 C-9.73847656 20.71675781 -9.97695312 21.55851562 -10.22265625 22.42578125 C-10.44824219 23.23144531 -10.67382812 24.03710938 -10.90625 24.8671875 C-11.11572266 25.61081543 -11.32519531 26.35444336 -11.54101562 27.12060547 C-12.07908223 29.00137827 -12.07908223 29.00137827 -12 31 C-8.04 31 -4.08 31 0 31 C-1.26836579 24.17033804 -2.888278 17.61672893 -5 11 C-5.66 11 -6.32 11 -7 11 Z " fill="#52BAEA" transform="translate(153,246)"/>
<path d="M0 0 C8.77413648 3.18411824 17.04036405 7.36754931 25.36621094 11.55273438 C27.72818715 12.73904443 30.09427783 13.91681654 32.4609375 15.09375 C36.27384582 16.99651624 40.069972 18.92938127 43.85375977 20.8894043 C45.25969601 21.61692153 46.66830962 22.33929324 48.07983398 23.0559082 C62.53095208 30.44078339 62.53095208 30.44078339 65 38 C65.76209895 41.49869597 66.09713973 44.92969 66.3125 48.5 C66.38533203 49.4178125 66.45816406 50.335625 66.53320312 51.28125 C66.7081166 53.52014254 66.86326896 55.75850761 67 58 C60.8327268 56.97814339 55.18596015 54.48289088 49.40966797 52.18212891 C47.40626582 51.38740279 45.39686878 50.60950014 43.38671875 49.83203125 C25.96201906 42.98086484 13.42755336 33.54751429 5.76171875 16.1328125 C5.06309045 14.46655135 4.37171299 12.79723213 3.6875 11.125 C3.32849609 10.27164063 2.96949219 9.41828125 2.59960938 8.5390625 C0 2.28019345 0 2.28019345 0 0 Z " fill="#52BAEA" transform="translate(29,217)"/>
<path d="M0 0 C2.875 -0.125 2.875 -0.125 6 0 C9.0073843 3.0073843 8.31761353 6.4029062 8.34375 10.4375 C8.3583728 11.27337646 8.37299561 12.10925293 8.38806152 12.97045898 C8.45045862 16.55469531 8.48996807 20.13910642 8.53173828 23.72363281 C8.56541034 26.33677454 8.61053904 28.94954573 8.65625 31.5625 C8.6615271 32.37710693 8.6668042 33.19171387 8.67224121 34.03100586 C8.56935582 38.48686566 8.56935582 38.48686566 11 42 C13.79345078 42.35827142 13.79345078 42.35827142 16.9375 42.3125 C17.99839844 42.32925781 19.05929687 42.34601563 20.15234375 42.36328125 C22.910406 42.20774049 22.910406 42.20774049 24.65039062 40.99707031 C26.79737701 37.82008974 26.440861 34.39144946 26.44140625 30.68359375 C26.45461411 29.87132828 26.46782196 29.05906281 26.48143005 28.22218323 C26.52234184 25.62725376 26.5440059 23.03267919 26.5625 20.4375 C26.58626148 17.83885768 26.61432858 15.24055096 26.65428162 12.6421051 C26.67869839 11.02514851 26.69350831 9.40801329 26.69789124 7.7908783 C26.77546627 2.22453373 26.77546627 2.22453373 29 0 C32.125 -0.125 32.125 -0.125 35 0 C35.07434992 5.72913803 35.12869672 11.45799301 35.16479492 17.1875 C35.17984899 19.13514094 35.2002968 21.08274816 35.22631836 23.03027344 C35.26285053 25.83537128 35.27976033 28.64001954 35.29296875 31.4453125 C35.30845261 32.31116974 35.32393646 33.17702698 35.33988953 34.06912231 C35.34129001 39.1396948 34.83401704 42.61523101 32 47 C27.28718021 51.15837041 23.50279571 51.62659675 17.5 51.5 C16.39978516 51.52320313 16.39978516 51.52320313 15.27734375 51.546875 C10.1003495 51.50983032 7.04340385 50.47257037 3 47 C-0.73542386 42.3801181 -0.39116295 37.98668721 -0.29296875 32.32421875 C-0.28872391 31.3990596 -0.28447906 30.47390045 -0.28010559 29.52070618 C-0.26335993 26.5760037 -0.22571522 23.6319944 -0.1875 20.6875 C-0.17244785 18.68685887 -0.15876037 16.68620697 -0.14648438 14.68554688 C-0.11346983 9.79009893 -0.06171575 4.89516685 0 0 Z " fill="#FEFEFE" transform="translate(360,245)"/>
<path d="M0 0 C1.46759766 -0.00193359 1.46759766 -0.00193359 2.96484375 -0.00390625 C3.98449219 -0.00003906 5.00414062 0.00382813 6.0546875 0.0078125 C7.08207031 0.00394531 8.10945313 0.00007812 9.16796875 -0.00390625 C10.14378906 -0.00261719 11.11960937 -0.00132812 12.125 0 C13.02234863 0.00112793 13.91969727 0.00225586 14.84423828 0.00341797 C16.9296875 0.1328125 16.9296875 0.1328125 17.9296875 1.1328125 C17.97061687 3.46578683 17.97210473 5.79986475 17.9296875 8.1328125 C17.30924561 8.14739502 16.68880371 8.16197754 16.04956055 8.17700195 C13.23814117 8.25147838 10.42791001 8.34813814 7.6171875 8.4453125 C6.64072266 8.46787109 5.66425781 8.49042969 4.65820312 8.51367188 C3.72041016 8.54912109 2.78261719 8.58457031 1.81640625 8.62109375 C0.52029419 8.66036987 0.52029419 8.66036987 -0.80200195 8.70043945 C-3.53205291 9.22082695 -4.48111611 9.86883698 -6.0703125 12.1328125 C-6.07113785 15.71037936 -6.07113785 15.71037936 -5.0703125 19.1328125 C-0.89870513 21.91388408 2.78065869 21.46927384 7.703125 21.59375 C11.56605593 22.23913071 13.18105845 23.38418345 15.9296875 26.1328125 C19.30903883 31.02669019 18.7330134 37.4820671 17.9296875 43.1328125 C15.76514375 47.27753824 13.36312603 49.65499966 8.9296875 51.1328125 C7.08358218 51.21520419 5.23463586 51.24024609 3.38671875 51.23046875 C2.31357422 51.22724609 1.24042969 51.22402344 0.13476562 51.22070312 C-0.98478516 51.21232422 -2.10433594 51.20394531 -3.2578125 51.1953125 C-4.38896484 51.19080078 -5.52011719 51.18628906 -6.68554688 51.18164062 C-9.48052177 51.16984748 -12.2753907 51.153389 -15.0703125 51.1328125 C-15.1953125 48.2578125 -15.1953125 48.2578125 -15.0703125 45.1328125 C-12.63246639 42.69496639 -11.91805649 42.86586992 -8.5703125 42.7890625 C-7.6834375 42.75941406 -6.7965625 42.72976563 -5.8828125 42.69921875 C-4.0078125 42.65494792 -2.1328125 42.61067708 -0.2578125 42.56640625 C0.6290625 42.53675781 1.5159375 42.50710938 2.4296875 42.4765625 C3.65171875 42.44852539 3.65171875 42.44852539 4.8984375 42.41992188 C7.15468781 42.30860167 7.15468781 42.30860167 8.9296875 40.1328125 C9.25720984 37.41826294 9.06053 34.88050491 8.9296875 32.1328125 C6.73023489 29.93335989 1.12925577 30.44771105 -1.9921875 30.234375 C-5.9879516 29.83773665 -7.73565129 29.40235044 -10.9609375 26.8046875 C-15.30748435 21.29906149 -15.78054991 17.04943222 -15.0703125 10.1328125 C-13.53406594 5.90813446 -11.9499243 3.43633201 -8.0703125 1.1328125 C-5.09252396 0.14021632 -3.10788299 0.00389668 0 0 Z " fill="#FEFEFE" transform="translate(493.0703125,244.8671875)"/>
<path d="M0 0 C0.88816406 -0.00128906 1.77632813 -0.00257813 2.69140625 -0.00390625 C3.61566406 -0.00003906 4.53992188 0.00382813 5.4921875 0.0078125 C6.42417969 0.00394531 7.35617187 0.00007812 8.31640625 -0.00390625 C9.20199219 -0.00261719 10.08757812 -0.00132812 11 0 C12.22033936 0.00169189 12.22033936 0.00169189 13.46533203 0.00341797 C15.3671875 0.1328125 15.3671875 0.1328125 16.3671875 1.1328125 C16.4921875 4.1328125 16.4921875 4.1328125 16.3671875 7.1328125 C14.85656057 8.64343943 13.47327461 8.32813707 11.3671875 8.4140625 C10.5628125 8.45144531 9.7584375 8.48882812 8.9296875 8.52734375 C7.22135417 8.59765625 5.51302083 8.66796875 3.8046875 8.73828125 C3.0003125 8.77566406 2.1959375 8.81304687 1.3671875 8.8515625 C0.2534375 8.89700195 0.2534375 8.89700195 -0.8828125 8.94335938 C-2.65970105 8.95073663 -2.65970105 8.95073663 -3.6328125 10.1328125 C-3.7330218 12.41229042 -3.76362553 14.69488385 -3.765625 16.9765625 C-3.76658173 17.66085327 -3.76753845 18.34514404 -3.76852417 19.0501709 C-3.7692058 20.49943127 -3.76735273 21.94869468 -3.76318359 23.39794922 C-3.75783502 25.62344178 -3.7631291 27.84873251 -3.76953125 30.07421875 C-3.76887047 31.47916711 -3.7675893 32.88411535 -3.765625 34.2890625 C-3.76449707 35.57619141 -3.76336914 36.86332031 -3.76220703 38.18945312 C-3.96967393 41.02107407 -3.96967393 41.02107407 -2.6328125 42.1328125 C0.73386946 42.33616913 4.09328682 42.47954429 7.46484375 42.5625 C10.45823005 42.69335842 12.82714588 42.81286331 15.4375 44.359375 C16.75978181 46.88171089 16.15730361 48.47514922 15.3671875 51.1328125 C11.9715178 51.22027196 8.57613977 51.27335694 5.1796875 51.3203125 C3.74012695 51.35801758 3.74012695 51.35801758 2.27148438 51.39648438 C-6.72794378 51.48990404 -6.72794378 51.48990404 -10.6328125 48.1328125 C-13.17560038 44.31863068 -12.9741194 41.16460767 -13.00390625 36.73828125 C-13.01293472 35.91330643 -13.0219632 35.0883316 -13.03126526 34.23835754 C-13.04577018 32.49251942 -13.0546551 30.7466269 -13.05834961 29.00073242 C-13.07022445 26.34004064 -13.11938521 23.68168512 -13.16992188 21.02148438 C-13.17938908 19.32292795 -13.18662269 17.62435732 -13.19140625 15.92578125 C-13.21093857 15.13495651 -13.23047089 14.34413177 -13.25059509 13.52934265 C-13.2176836 9.46448691 -12.85251759 6.885079 -10.28540039 3.64575195 C-6.84943705 0.39067872 -4.55163524 0.006293 0 0 Z " fill="#FEFEFE" transform="translate(458.6328125,244.8671875)"/>
<path d="M0 0 C10.89 0 21.78 0 33 0 C33 2.64 33 5.28 33 8 C29.37 8.33 25.74 8.66 22 9 C21.67 22.86 21.34 36.72 21 51 C18.03 51 15.06 51 12 51 C11.505 30.21 11.505 30.21 11 9 C7.37 8.67 3.74 8.34 0 8 C0 5.36 0 2.72 0 0 Z " fill="#FEFEFE" transform="translate(398,245)"/>
<path d="M0 0 C4.25988203 0.66791177 7.88701375 2.09717321 11.83984375 3.80078125 C12.8067086 4.21725166 12.8067086 4.21725166 13.79310608 4.64213562 C15.15146106 5.22894621 16.50873935 5.81825471 17.86499023 6.40991211 C19.92419856 7.30670716 21.98812238 8.1919007 24.05273438 9.07617188 C25.37790615 9.65034519 26.7027858 10.22519331 28.02734375 10.80078125 C29.81773071 11.57675659 29.81773071 11.57675659 31.64428711 12.3684082 C38.48319445 15.69357501 42.89722488 19.04377837 46 26 C46.6318463 28.73180608 46.849105 31.18329339 47 34 C39.63747428 32.18954285 32.40440255 29.93903063 25.1875 27.625 C24.28040283 27.34519287 23.37330566 27.06538574 22.4387207 26.77709961 C14.99902338 24.35029053 10.09917481 21.52820721 6.4453125 14.35546875 C5.65649878 12.6397989 4.88329441 10.91687552 4.125 9.1875 C3.7228125 8.30384766 3.320625 7.42019531 2.90625 6.50976562 C1.92361926 4.34563841 0.95550147 2.17620726 0 0 Z " fill="#FEFEFE" transform="translate(50,262)"/>
<path d="M0 0 C0.33 0 0.66 0 1 0 C1.33 2.31 1.66 4.62 2 7 C2.66 5.35 3.32 3.7 4 2 C4.66 2.33 5.32 2.66 6 3 C5.67 4.98 5.34 6.96 5 9 C6.65 8.34 8.3 7.68 10 7 C9.49396008 9.16874252 9.00016187 10.99967627 8 13 C9.32 12.67 10.64 12.34 12 12 C12 12.99 12 13.98 12 15 C10.35 15.66 8.7 16.32 7 17 C8.65 17.33 10.3 17.66 12 18 C11.67 18.99 11.34 19.98 11 21 C8.69 21 6.38 21 4 21 C5.65 21.66 7.3 22.32 9 23 C8.67 23.99 8.34 24.98 8 26 C6.35 25.67 4.7 25.34 3 25 C3.66 26.32 4.32 27.64 5 29 C2 29 2 29 0.3125 27.5 C-0.120625 27.005 -0.55375 26.51 -1 26 C-0.67 27.65 -0.34 29.3 0 31 C-1.9375 30.6875 -1.9375 30.6875 -4 30 C-4.33 29.01 -4.66 28.02 -5 27 C-5.66 27.33 -6.32 27.66 -7 28 C-10.15675551 26.42162225 -10.94234577 23.77731002 -12.30078125 20.62109375 C-13.47422985 16.2223004 -12.68354156 12.1824306 -11 8 C-9.53515625 6.3359375 -9.53515625 6.3359375 -8 5 C-7.34 4.34 -6.68 3.68 -6 3 C-5.01 3 -4.02 3 -3 3 C-2.67 3.66 -2.34 4.32 -2 5 C-1.34 3.35 -0.68 1.7 0 0 Z M-6 6 C-5 8 -5 8 -5 8 Z " fill="#FBFDFE" transform="translate(262,255)"/>
<path d="M0 0 C2.875 -0.125 2.875 -0.125 6 0 C8 2 8 2 8.24050903 4.10073853 C8.23606781 4.96677704 8.23162659 5.83281555 8.22705078 6.72509766 C8.22682419 8.19639633 8.22682419 8.19639633 8.22659302 9.69741821 C8.21627045 10.75891083 8.20594788 11.82040344 8.1953125 12.9140625 C8.1924826 13.99883881 8.18965271 15.08361511 8.18673706 16.20126343 C8.17551578 19.67595313 8.15040762 23.15038782 8.125 26.625 C8.11497272 28.97655879 8.10584643 31.3281216 8.09765625 33.6796875 C8.07557011 39.45321244 8.04207345 45.22658801 8 51 C5.125 51.125 5.125 51.125 2 51 C0 49 0 49 -0.24050903 46.89926147 C-0.23606781 46.03322296 -0.23162659 45.16718445 -0.22705078 44.27490234 C-0.22682419 42.80360367 -0.22682419 42.80360367 -0.22659302 41.30258179 C-0.21627045 40.24108917 -0.20594788 39.17959656 -0.1953125 38.0859375 C-0.1924826 37.00116119 -0.18965271 35.91638489 -0.18673706 34.79873657 C-0.17551578 31.32404687 -0.15040762 27.84961218 -0.125 24.375 C-0.11497272 22.02344121 -0.10584643 19.6718784 -0.09765625 17.3203125 C-0.07557011 11.54678756 -0.04207345 5.77341199 0 0 Z " fill="#FEFEFE" transform="translate(434,245)"/>
<path d="M0 0 C1.32 0.33 2.64 0.66 4 1 C5.8030208 4.87872066 6.78690963 8.88415767 8 13 C9.65 8.71 11.3 4.42 13 0 C13.99 0 14.98 0 16 0 C16 6.27 16 12.54 16 19 C15.34 19 14.68 19 14 19 C13.67 16.03 13.34 13.06 13 10 C11.68 12.97 10.36 15.94 9 19 C8.01 18.67 7.02 18.34 6 18 C4.8125 14.9375 4.8125 14.9375 4 12 C3.34 14.31 2.68 16.62 2 19 C1.34 18.67 0.68 18.34 0 18 C0 12.06 0 6.12 0 0 Z " fill="#FEFEFE" transform="translate(260,221)"/>
<path d="M0 0 C2.01822917 0.06510417 4.03645833 0.13020833 6.0546875 0.1953125 C6.0546875 1.1853125 6.0546875 2.1753125 6.0546875 3.1953125 C3.4146875 3.1953125 0.7746875 3.1953125 -1.9453125 3.1953125 C-1.9453125 4.8453125 -1.9453125 6.4953125 -1.9453125 8.1953125 C0.0346875 8.1953125 2.0146875 8.1953125 4.0546875 8.1953125 C4.0546875 7.5353125 4.0546875 6.8753125 4.0546875 6.1953125 C5.0446875 6.1953125 6.0346875 6.1953125 7.0546875 6.1953125 C8.59086662 10.29179016 7.74514006 13.98355187 7.0546875 18.1953125 C6.0546875 19.1953125 6.0546875 19.1953125 2.6796875 19.3828125 C-0.9453125 19.1953125 -0.9453125 19.1953125 -3.9453125 17.1953125 C-4.22199475 14.60104452 -4.31826492 12.28267604 -4.2578125 9.6953125 C-4.26103516 9.00566406 -4.26425781 8.31601563 -4.26757812 7.60546875 C-4.19054885 0.42073784 -4.19054885 0.42073784 0 0 Z M-1.9453125 11.1953125 C-1.9453125 12.8453125 -1.9453125 14.4953125 -1.9453125 16.1953125 C0.0346875 16.1953125 2.0146875 16.1953125 4.0546875 16.1953125 C4.0546875 14.5453125 4.0546875 12.8953125 4.0546875 11.1953125 C2.0746875 11.1953125 0.0946875 11.1953125 -1.9453125 11.1953125 Z " fill="#FEFEFE" transform="translate(235.9453125,220.8046875)"/>
<path d="M0 0 C3.63 0 7.26 0 11 0 C11 0.99 11 1.98 11 3 C8.36 3 5.72 3 3 3 C3 4.65 3 6.3 3 8 C5.64 8 8.28 8 11 8 C11 8.99 11 9.98 11 11 C8.36 11 5.72 11 3 11 C3 12.65 3 14.3 3 16 C5.64 16 8.28 16 11 16 C11 16.99 11 17.98 11 19 C9.35425434 19.02688151 7.70838587 19.04634123 6.0625 19.0625 C5.14597656 19.07410156 4.22945313 19.08570313 3.28515625 19.09765625 C1 19 1 19 0 18 C-0.08631874 16.65732587 -0.10706473 15.31025678 -0.09765625 13.96484375 C-0.09443359 13.15595703 -0.09121094 12.34707031 -0.08789062 11.51367188 C-0.07951172 10.66353516 -0.07113281 9.81339844 -0.0625 8.9375 C-0.05798828 8.08349609 -0.05347656 7.22949219 -0.04882812 6.34960938 C-0.03700373 4.23304337 -0.01906769 2.11651315 0 0 Z " fill="#FEFEFE" transform="translate(327,221)"/>
<path d="M0 0 C1.60875 -0.04125 3.2175 -0.0825 4.875 -0.125 C5.77992188 -0.14820313 6.68484375 -0.17140625 7.6171875 -0.1953125 C10 0 10 0 12 2 C12.25 5.5 12.25 5.5 12 9 C11.34 9.66 10.68 10.32 10 11 C10.66 13.31 11.32 15.62 12 18 C11.01 18 10.02 18 9 18 C8.34 15.69 7.68 13.38 7 11 C5.35 11 3.7 11 2 11 C2 13.64 2 16.28 2 19 C1.34 19 0.68 19 0 19 C0 12.73 0 6.46 0 0 Z M2 3 C2 4.65 2 6.3 2 8 C4.31 8 6.62 8 9 8 C9 6.35 9 4.7 9 3 C6.69 3 4.38 3 2 3 Z " fill="#FEFEFE" transform="translate(345,221)"/>
<path d="M0 0 C1.60875 -0.04125 3.2175 -0.0825 4.875 -0.125 C5.77992188 -0.14820313 6.68484375 -0.17140625 7.6171875 -0.1953125 C10 0 10 0 12 2 C12.25 5.5 12.25 5.5 12 9 C11.34 9.66 10.68 10.32 10 11 C10.66 13.31 11.32 15.62 12 18 C11.01 18 10.02 18 9 18 C8.34 15.69 7.68 13.38 7 11 C5.35 11 3.7 11 2 11 C2 13.64 2 16.28 2 19 C1.34 19 0.68 19 0 19 C0 12.73 0 6.46 0 0 Z M2 3 C2 4.65 2 6.3 2 8 C4.31 8 6.62 8 9 8 C9 6.35 9 4.7 9 3 C6.69 3 4.38 3 2 3 Z " fill="#FEFEFE" transform="translate(166,221)"/>
<path d="M0 0 C0.66 0 1.32 0 2 0 C2 1.32 2 2.64 2 4 C3.32 4.66 4.64 5.32 6 6 C5.67 6.66 5.34 7.32 5 8 C2.36 8 -0.28 8 -3 8 C-3 9.65 -3 11.3 -3 13 C-0.36 13 2.28 13 5 13 C5 13.99 5 14.98 5 16 C2.36 16 -0.28 16 -3 16 C-3 17.65 -3 19.3 -3 21 C-0.36 21 2.28 21 5 21 C5 21.99 5 22.98 5 24 C1.7 24 -1.6 24 -5 24 C-5 17.73 -5 11.46 -5 5 C-3.68 5 -2.36 5 -1 5 C-0.67 3.35 -0.34 1.7 0 0 Z " fill="#FEFEFE" transform="translate(288,216)"/>
<path d="M0 0 C0.90492188 0.02320313 1.80984375 0.04640625 2.7421875 0.0703125 C4.10730469 0.09738281 4.10730469 0.09738281 5.5 0.125 C6.19867188 0.14820313 6.89734375 0.17140625 7.6171875 0.1953125 C7.2871875 1.1853125 6.9571875 2.1753125 6.6171875 3.1953125 C3.6471875 3.1953125 0.6771875 3.1953125 -2.3828125 3.1953125 C-2.3828125 4.8453125 -2.3828125 6.4953125 -2.3828125 8.1953125 C-0.4646875 8.1334375 -0.4646875 8.1334375 1.4921875 8.0703125 C3.671875 8 3.671875 8 5.6171875 8.1953125 C7.6171875 10.1953125 7.6171875 10.1953125 7.9296875 13.6953125 C7.775 15.4278125 7.775 15.4278125 7.6171875 17.1953125 C4.41338733 19.33117928 3.59778783 19.42663425 -0.0703125 19.3203125 C-1.28267578 19.29324219 -1.28267578 19.29324219 -2.51953125 19.265625 C-3.13441406 19.24242187 -3.74929688 19.21921875 -4.3828125 19.1953125 C-4.3828125 18.2053125 -4.3828125 17.2153125 -4.3828125 16.1953125 C-1.4128125 16.1953125 1.5571875 16.1953125 4.6171875 16.1953125 C4.6171875 14.5453125 4.6171875 12.8953125 4.6171875 11.1953125 C3.225 11.2571875 3.225 11.2571875 1.8046875 11.3203125 C-1.3828125 11.1953125 -1.3828125 11.1953125 -4.3828125 9.1953125 C-4.6953125 5.6953125 -4.6953125 5.6953125 -4.3828125 2.1953125 C-2.3828125 0.1953125 -2.3828125 0.1953125 0 0 Z " fill="#FEFEFE" transform="translate(368.3828125,220.8046875)"/>
<path d="M0 0 C0.90492188 0.02320313 1.80984375 0.04640625 2.7421875 0.0703125 C4.10730469 0.09738281 4.10730469 0.09738281 5.5 0.125 C6.19867188 0.14820313 6.89734375 0.17140625 7.6171875 0.1953125 C7.6171875 1.1853125 7.6171875 2.1753125 7.6171875 3.1953125 C4.6471875 3.1953125 1.6771875 3.1953125 -1.3828125 3.1953125 C-1.3828125 4.8453125 -1.3828125 6.4953125 -1.3828125 8.1953125 C-0.2690625 8.1540625 0.8446875 8.1128125 1.9921875 8.0703125 C5.6171875 8.1953125 5.6171875 8.1953125 7.6171875 10.1953125 C7.9296875 13.6953125 7.9296875 13.6953125 7.6171875 17.1953125 C4.52830228 19.25456931 3.90782823 19.4343499 0.4296875 19.3203125 C-0.8284375 19.2790625 -2.0865625 19.2378125 -3.3828125 19.1953125 C-3.7128125 18.2053125 -4.0428125 17.2153125 -4.3828125 16.1953125 C-1.0828125 16.1953125 2.2171875 16.1953125 5.6171875 16.1953125 C5.6171875 14.5453125 5.6171875 12.8953125 5.6171875 11.1953125 C4.5240625 11.2571875 3.4309375 11.3190625 2.3046875 11.3828125 C-1.3828125 11.1953125 -1.3828125 11.1953125 -3.3203125 10.0703125 C-4.86419526 7.34581351 -4.7095232 5.26639305 -4.3828125 2.1953125 C-2.3828125 0.1953125 -2.3828125 0.1953125 0 0 Z " fill="#FEFEFE" transform="translate(207.3828125,220.8046875)"/>
<path d="M0 0 C3.5 0.1875 3.5 0.1875 7 1 C9 4 9 4 8.8125 7.0625 C8 10 8 10 5 12 C1.9375 11.8125 1.9375 11.8125 -1 11 C-3 8 -3 8 -2.75 4.9375 C-2 2 -2 2 0 0 Z " fill="#5ABDEB" transform="translate(255,265)"/>
<path d="M0 0 C1.32 0.33 2.64 0.66 4 1 C4.67321284 3.24805002 5.33834123 5.49852224 6 7.75 C6.556875 9.62945312 6.556875 9.62945312 7.125 11.546875 C8 15 8 15 8 19 C7.34 19 6.68 19 6 19 C5.67 17.35 5.34 15.7 5 14 C2.69 14 0.38 14 -2 14 C-2.33 15.65 -2.66 17.3 -3 19 C-3.66 19 -4.32 19 -5 19 C-3.83795007 12.45150687 -2.26616615 6.25461856 0 0 Z M1 5 C0.67 6.98 0.34 8.96 0 11 C1.32 10.67 2.64 10.34 4 10 C3.34 8.35 2.68 6.7 2 5 C1.67 5 1.34 5 1 5 Z " fill="#FEFEFE" transform="translate(152,221)"/>
<path d="M0 0 C3.96 0 7.92 0 12 0 C12 0.99 12 1.98 12 3 C10.68 3 9.36 3 8 3 C8 7.95 8 12.9 8 18 C7.01 18 6.02 18 5 18 C5 13.05 5 8.1 5 3 C3.35 2.67 1.7 2.34 0 2 C0 1.34 0 0.68 0 0 Z " fill="#FEFEFE" transform="translate(300,221)"/>
<path d="M0 0 C3.96 0 7.92 0 12 0 C12 0.99 12 1.98 12 3 C10.68 3 9.36 3 8 3 C8 7.95 8 12.9 8 18 C7.01 18 6.02 18 5 18 C5 13.05 5 8.1 5 3 C3.35 2.67 1.7 2.34 0 2 C0 1.34 0 0.68 0 0 Z " fill="#FEFEFE" transform="translate(184,221)"/>
<path d="M0 0 C0.66 0 1.32 0 2 0 C2 6.27 2 12.54 2 19 C1.34 19 0.68 19 0 19 C0 12.73 0 6.46 0 0 Z " fill="#FEFEFE" transform="translate(319,221)"/>
<path d="M0 0 C0.99 0 1.98 0 3 0 C1.63016497 3.16115776 1.0109362 3.9927092 -2 6 C-2 2 -2 2 0 0 Z " fill="#7EC8EF" transform="translate(247,274)"/>
<path d="M0 0 C-0.33 0.99 -0.66 1.98 -1 3 C-2.98 3.33 -4.96 3.66 -7 4 C-6.67 3.01 -6.34 2.02 -6 1 C-3 0 -3 0 0 0 Z " fill="#7BC7EE" transform="translate(249,270)"/>
<path d="M0 0 C2.31 0 4.62 0 7 0 C7 0.99 7 1.98 7 3 C4.69 3 2.38 3 0 3 C0 2.01 0 1.02 0 0 Z " fill="#77C6EE" transform="translate(243,266)"/>
</svg>
