<svg xmlns="http://www.w3.org/2000/svg" width="506" height="494" version="1.1"><path fill="#011F5B" d="M0 0 C3.29647228 0.62320676 5.44574429 1.79896322 8.16796875 3.73828125 C8.96976563 4.30482422 9.7715625 4.87136719 10.59765625 5.45507812 C11.45230469 6.06802734 12.30695313 6.68097656 13.1875 7.3125 C14.07953125 7.94478516 14.9715625 8.57707031 15.890625 9.22851562 C17.7236007 10.52828573 19.55481717 11.83054026 21.38427734 13.13525391 C25.08020486 15.77007698 28.79033584 18.3845757 32.5 21 C33.889324 21.9817693 35.2786469 22.96354015 36.66796875 23.9453125 C43.91297512 29.05923892 51.18414135 34.1359224 58.45166016 39.21777344 C62.6354306 42.14376733 66.81764524 45.0719831 71 48 C72.66665902 49.16667759 74.33332569 50.33334425 76 51.5 C79.33333333 53.83333333 82.66666667 56.16666667 86 58.5 C87.23786255 59.3664917 87.23786255 59.3664917 88.50073242 60.25048828 C90.16498828 61.41548364 91.82921361 62.5805226 93.4934082 63.74560547 C97.69670923 66.68820411 101.90056181 69.63000904 106.10546875 72.5703125 C114.60810465 78.51694129 123.10090706 84.47678902 131.57373047 90.46582031 C142.21264377 97.98176979 152.896229 105.43426006 163.57421875 112.89453125 C164.48260498 113.52955566 165.39099121 114.16458008 166.3269043 114.81884766 C168.06883968 116.03656374 169.81117059 117.25371429 171.55395508 118.47021484 C172.3405249 119.02016113 173.12709473 119.57010742 173.9375 120.13671875 C174.62714844 120.61842529 175.31679688 121.10013184 176.02734375 121.59643555 C176.67832031 122.05961182 177.32929688 122.52278809 178 123 C178.68349014 123.43425293 179.36698029 123.86850586 180.07118225 124.31591797 C182.42954453 126.37504229 182.57580086 127.27877563 182.83374023 130.34887695 C182.95952202 131.68168198 182.95952202 131.68168198 183.08784485 133.04141235 C183.16069199 134.01387909 183.23353912 134.98634583 183.30859375 135.98828125 C183.44620369 137.52795059 183.44620369 137.52795059 183.58659363 139.09872437 C183.88698566 142.5020885 184.1617864 145.90705568 184.4375 149.3125 C184.64368511 151.68026813 184.851884 154.0478617 185.06201172 156.4152832 C185.50072908 161.38710085 185.92974988 166.3596033 186.35009766 171.33300781 C187.30324308 182.60653524 188.29264 193.87665778 189.30935669 205.1446228 C189.61992842 208.630575 189.91682913 212.1175054 190.21264648 215.60473633 C190.40422821 217.76128002 190.59633952 219.91777675 190.7890625 222.07421875 C190.86706589 223.03564789 190.94506927 223.99707703 191.0254364 224.98764038 C192.65017582 242.62535688 200.49691526 254.87409595 213.87890625 266.1953125 C216.23964331 268.20389542 218.52361435 270.28499067 220.8125 272.375 C224.35160002 275.57652433 227.97103106 278.63146063 231.6875 281.625 C235.41135858 284.63533603 238.80834965 287.74328617 242.125 291.1875 C244.46601973 293.45048573 246.96314131 295.45948323 249.5 297.5 C253.28579058 300.54509243 256.74592221 303.66443694 260.09765625 307.171875 C263.44329092 310.38698183 267.16617276 313.15619222 270.83984375 315.984375 C271.55269531 316.64953125 272.26554687 317.3146875 273 318 C273 318.99 273 319.98 273 321 C248.17999647 319.00845481 231.67186487 307.41545043 211.8125 293.37890625 C207.72949849 290.4991042 203.60576321 287.69206947 199.4375 284.9375 C193.55256501 281.04462732 187.70385997 277.10141862 181.875 273.125 C181.06861084 272.57706787 180.26222168 272.02913574 179.43139648 271.46459961 C168.28127105 263.84336713 161.55324938 256.31534826 158 243 C156.92409309 236.83257151 156.49446714 230.57228033 155.96484375 224.33984375 C155.79996545 222.5409159 155.63347777 220.74213492 155.46546936 218.9434967 C155.02862651 214.23521067 154.60754273 209.52567435 154.19171143 204.81549072 C153.52569152 197.2753139 152.84560994 189.73653842 152.14633369 182.19937325 C151.90757457 179.58462855 151.68181055 176.96898887 151.45701599 174.35301208 C150.32294185 161.68162927 148.77860517 150.82750515 140 141 C132.78959676 135.5578481 124.59241647 131.62471231 116.5 127.6875 C114.19845423 126.55232999 111.89767774 125.41559901 109.59765625 124.27734375 C108.47633301 123.72288574 107.35500977 123.16842773 106.19970703 122.59716797 C100.20704652 119.60586742 94.29124026 116.47381986 88.3828125 113.3203125 C85.48082207 111.7721553 82.56140254 110.27087766 79.6171875 108.8046875 C69.20178686 103.56821535 60.02722987 97.37277759 51 90 C49.99066406 89.17628906 48.98132813 88.35257812 47.94140625 87.50390625 C27.08478452 69.48733514 15.62113069 44.48144611 6.5 19.0625 C5.86281727 17.3128456 5.22480022 15.5634948 4.5859375 13.81445312 C0 1.20958642 0 1.20958642 0 0 Z" transform="translate(108,70)"/><path fill="#02A2E6" d="M0 0 C3.50277111 0.58943136 6.40186577 1.49937156 9.59667969 3.04248047 C10.4826886 3.46772003 11.36869751 3.89295959 12.28155518 4.33108521 C13.23536072 4.79674896 14.18916626 5.26241272 15.171875 5.7421875 C16.18062683 6.22984589 17.18937866 6.71750427 18.22869873 7.21994019 C30.29254746 13.07376452 42.27152978 19.09901038 54.25 25.125 C73.50079526 34.82149686 73.50079526 34.82149686 92.94024658 44.13150024 C99.44081491 47.16671061 105.72061768 50.52915316 112 54 C112.97582031 54.51304687 113.95164062 55.02609375 114.95703125 55.5546875 C127.34178971 62.09438212 135.08009036 68.5688413 140 82 C142.08831353 91.32575309 142.39388497 100.7934498 142.625 110.3125 C142.66332349 111.650412 142.7023826 112.98830313 142.7421875 114.32617188 C142.8353133 117.55065274 142.92113386 120.7751443 143 124 C140.20279731 123.50991159 138.23788496 123.14952769 135.8125 121.625 C133.2068502 120.11951345 131.1195355 119.3741306 128.25 118.5625 C122.38461322 116.89038826 117.05642376 114.44520996 111.5546875 111.84375 C102.15460501 107.46639816 92.44126924 103.59595403 82.5 100.625 C72.27063004 97.28720174 62.41465387 91.7424289 53.8203125 85.34765625 C52.03810447 83.94706339 52.03810447 83.94706339 50 83 C50 82.01 50 81.02 50 80 C49.21625 79.87625 48.4325 79.7525 47.625 79.625 C45 79 45 79 43 77 C43 76.01 43 75.02 43 74 C42.071875 73.9071875 42.071875 73.9071875 41.125 73.8125 C39 73 39 73 37.75 70.4375 C37.5025 69.633125 37.255 68.82875 37 68 C36.34 68 35.68 68 35 68 C33.66796875 66.49609375 33.66796875 66.49609375 32.1875 64.4375 C31.40052734 63.34888672 31.40052734 63.34888672 30.59765625 62.23828125 C30.07042969 61.49964844 29.54320312 60.76101562 29 60 C28.50371094 59.33355469 28.00742188 58.66710937 27.49609375 57.98046875 C24 53.24928775 24 53.24928775 24 51 C22.515 50.505 22.515 50.505 21 50 C20.06445312 48.40527344 20.06445312 48.40527344 19.28125 46.359375 C18.84232422 45.24755859 18.84232422 45.24755859 18.39453125 44.11328125 C18.09933594 43.33339844 17.80414063 42.55351562 17.5 41.75 C15.62426939 36.89275873 13.72173765 32.45442856 11 28 C10.16842926 25.95326297 9.37876611 23.88915091 8.625 21.8125 C6.73027148 16.7426658 4.59013718 11.97670922 2.015625 7.21875 C0.91863827 4.82225591 0.42020077 2.59428303 0 0 Z" transform="translate(108,154)"/><path fill="#011F5B" d="M0 0 C4.12536861 0.66048199 7.64183822 1.98935924 11.4765625 3.6328125 C12.10725647 3.90144608 12.73795044 4.17007965 13.38775635 4.44685364 C15.46894467 5.33473148 17.54706163 6.22954515 19.625 7.125 C21.08466506 7.75104288 22.54446565 8.37676985 24.00439453 9.00219727 C26.29523928 9.98380827 28.58583882 10.96596629 30.87557983 11.95014954 C35.63913582 13.9960749 40.4117613 16.0186622 45.19387817 18.02081299 C48.3326468 19.33558691 51.46808596 20.65819235 54.60321045 21.98162842 C56.09859528 22.6108222 57.5953522 23.23676652 59.09356689 23.85919189 C76.0140959 30.89594701 88.58049878 38.2010768 96.5546875 55.3671875 C98.59403138 60.49310589 99.50854752 65.52381518 100 71 C97.36949314 72.31525343 96.58999788 71.74174384 93.8359375 70.83178711 C92.97323242 70.55076645 92.11052734 70.26974579 91.22167969 69.98020935 C90.28227539 69.6657637 89.34287109 69.35131805 88.375 69.02734375 C87.39950195 68.70721817 86.42400391 68.38709259 85.41894531 68.05726624 C82.27695549 67.02430019 79.13849865 65.98101952 76 64.9375 C73.94553442 64.26039399 71.89084915 63.58395418 69.8359375 62.90820312 C65.80344112 61.58074601 61.77335166 60.24633834 57.74511719 58.90600586 C54.05744168 57.67936764 50.36589107 56.46622045 46.66894531 55.26782227 C45.8473291 54.99954117 45.02571289 54.73126007 44.17919922 54.45484924 C42.66757594 53.96148201 41.15464846 53.47208351 39.64013672 52.98765564 C27.20205716 48.90617748 20.45482178 41.34105047 14.55957031 29.96508789 C14.06553711 28.98660889 13.57150391 28.00812988 13.0625 27 C12.54397461 25.98993896 12.02544922 24.97987793 11.49121094 23.93920898 C7.46507226 16.0483037 3.62626269 8.08247986 0 0 Z" transform="translate(154,250)"/><path fill="#061E53" d="M0 0 C3.51670081 0.63321772 5.82027066 2.04856873 8.73046875 4.08984375 C10.05788086 5.01893555 10.05788086 5.01893555 11.41210938 5.96679688 C12.32798828 6.61712891 13.24386719 7.26746094 14.1875 7.9375 C15.11498047 8.58396484 16.04246094 9.23042969 16.99804688 9.89648438 C23.868083 14.73616601 23.868083 14.73616601 25 17 C24.443125 16.855625 23.88625 16.71125 23.3125 16.5625 C20.88615805 15.97230872 18.45093655 15.476571 16 15 C16 15.66 16 16.32 16 17 C14.35 16.67 12.7 16.34 11 16 C9.79833494 20.92682675 10.23130187 24.25244185 12 29 C12.66 29.33 13.32 29.66 14 30 C14.7109375 32.00390625 14.7109375 32.00390625 15.375 34.5625 C16.55516777 38.81475398 18.0974205 42.41227403 20.328125 46.2109375 C21.18623904 48.49591557 20.66017313 49.70009956 20 52 C15.23163396 41.43688911 10.90766917 30.77480259 6.91772461 19.89428711 C6.04335237 17.5102936 5.16184808 15.12902338 4.27929688 12.74804688 C3.71834971 11.22931445 3.15778714 9.71043991 2.59765625 8.19140625 C2.3352565 7.48117813 2.07285675 6.77095001 1.80250549 6.03919983 C0 1.11720389 0 1.11720389 0 0 Z" transform="translate(108,70)"/><path fill="#06A0E4" d="M0 0 C4.23322844 0.62045463 7.52290295 2.10523559 11.3125 4.0625 C12.38113281 4.61035156 13.44976562 5.15820312 14.55078125 5.72265625 C15.35902344 6.14417969 16.16726562 6.56570312 17 7 C13.86650268 8.04449911 13.01031744 7.93423645 10 7 C10.33 7.99 10.66 8.98 11 10 C9.35 10 7.7 10 6 10 C6.350625 10.5775 6.70125 11.155 7.0625 11.75 C8.16577711 14.39786506 7.80156509 15.33185326 7 18 C6.01407845 15.94072044 5.03652506 13.87743312 4.0625 11.8125 C3.51722656 10.66394531 2.97195312 9.51539063 2.41015625 8.33203125 C1.20539869 5.48533264 0.45223729 3.03972155 0 0 Z" transform="translate(108,154)"/><path fill="#0B214F" d="M0 0 C4.18362041 0.83672408 7.305048 1.84502057 11.17578125 3.50390625 C12.33271484 3.99697266 13.48964844 4.49003906 14.68164062 4.99804688 C15.87982422 5.51431641 17.07800781 6.03058594 18.3125 6.5625 C19.54213081 7.0883279 20.77194678 7.61372303 22.00195312 8.13867188 C25.00315052 9.42153664 28.00238815 10.70878448 31 12 C26.89923921 13.25864935 25.03161756 12.42423099 21.125 10.625 C17.04172233 8.75567339 13.46346518 7.5729224 9 7 C8.34 8.32 7.68 9.64 7 11 C6.34 11 5.68 11 5 11 C3.35 7.37 1.7 3.74 0 0 Z" transform="translate(154,250)"/><path fill="#081E4E" d="M0 0 C5.11723176 3.19826985 9.52692892 6.95834187 14 11 C13.67 11.66 13.34 12.32 13 13 C10.29060578 12.71638858 7.58277339 12.4233895 4.875 12.125 C4.11445313 12.04636719 3.35390625 11.96773438 2.5703125 11.88671875 C-1.85959721 11.39026335 -5.80211971 10.59599921 -10 9 C-10 8.67 -10 8.34 -10 8 C-9.16855469 8.08378906 -8.33710938 8.16757812 -7.48046875 8.25390625 C-6.39378906 8.35574219 -5.30710937 8.45757812 -4.1875 8.5625 C-3.10855469 8.66691406 -2.02960938 8.77132813 -0.91796875 8.87890625 C2.06482454 9.17577609 2.06482454 9.17577609 5 8 C3.63016497 4.83884224 3.0109362 4.0072908 0 2 C0 1.34 0 0.68 0 0 Z" transform="translate(368,378)"/><path fill="#092053" d="M0 0 C0.66 0 1.32 0 2 0 C2.47179687 1.06541016 2.47179687 1.06541016 2.953125 2.15234375 C3.38109375 3.07144531 3.8090625 3.99054688 4.25 4.9375 C4.66765625 5.85402344 5.0853125 6.77054687 5.515625 7.71484375 C6.78492944 10.13215656 6.78492944 10.13215656 9.046875 10.87890625 C11.08025002 11.16891863 11.08025002 11.16891863 13 10 C14.125 14.75 14.125 14.75 13 17 C13.08651631 18.54613014 13.24002636 20.08909387 13.4375 21.625 C13.53933594 22.44226563 13.64117187 23.25953125 13.74609375 24.1015625 C13.82988281 24.72804688 13.91367188 25.35453125 14 26 C9.88759927 21.42639545 7.42616536 16.22680353 4.75 10.75 C4.29109375 9.82703125 3.8321875 8.9040625 3.359375 7.953125 C0 1.15438988 0 1.15438988 0 0 Z" transform="translate(160,262)"/><path fill="#0B1E4D" d="M0 0 C5.94971493 3.02704795 11.51373711 6.52155177 17 10.3125 C17.6710376 10.74989502 18.3420752 11.18729004 19.03344727 11.63793945 C23.63345797 14.90023708 23.63345797 14.90023708 24.65405273 17.96240234 C24.93359375 20.04296875 24.93359375 20.04296875 25 24 C25.03222656 24.9075 25.06445312 25.815 25.09765625 26.75 C25.08605469 27.4925 25.07445312 28.235 25.0625 29 C25.05347656 29.763125 25.04445313 30.52625 25.03515625 31.3125 C25.02355469 31.869375 25.01195312 32.42625 25 33 C24.34 32.67 23.68 32.34 23 32 C23 27.05 23 22.1 23 17 C21.02 16.34 19.04 15.68 17 15 C15.62804426 13.70644173 14.28817344 12.37701298 13 11 C12.01 10.67 11.02 10.34 10 10 C8.33333333 8.33333333 6.66666667 6.66666667 5 5 C4.071875 4.443125 3.14375 3.88625 2.1875 3.3125 C1.465625 2.879375 0.74375 2.44625 0 2 C0 1.34 0 0.68 0 0 Z" transform="translate(266,180)"/><path fill="#091E4D" d="M0 0 C1.953125 0.8671875 1.953125 0.8671875 4 2 C4.75 4.125 4.75 4.125 5 6 C5.66 6 6.32 6 7 6 C7 6.66 7 7.32 7 8 C7.99 8.33 8.98 8.66 10 9 C10.0825 9.721875 10.165 10.44375 10.25 11.1875 C11.15114559 14.56679596 12.73166763 16.37724069 15 19 C15.33 19.66 15.66 20.32 16 21 C17.64363134 21.72159424 19.31050386 22.39351421 21 23 C20.67 24.65 20.34 26.3 20 28 C16.36300984 24.48640772 13.08951758 20.82167398 10 16.8125 C9.56574707 16.25022705 9.13149414 15.6879541 8.68408203 15.10864258 C5.11682261 10.37750621 2.33867818 5.4528128 0 0 Z" transform="translate(129,122)"/><path fill="#081E4D" d="M0 0 C0.33 0 0.66 0 1 0 C1.33947025 3.49943267 1.67044773 6.99962052 2 10.5 C2.09539062 11.48226562 2.19078125 12.46453125 2.2890625 13.4765625 C2.80588848 19.01398367 3.10592737 24.43881298 3 30 C2.34 29.67 1.68 29.34 1 29 C1 26.36 1 23.72 1 21 C0.01 21 -0.98 21 -2 21 C-2.125 13.375 -2.125 13.375 -1 10 C-0.77991948 8.27467737 -0.59496906 6.54465967 -0.4375 4.8125 C-0.35371094 3.91144531 -0.26992188 3.01039063 -0.18359375 2.08203125 C-0.12300781 1.39496094 -0.06242187 0.70789063 0 0 Z" transform="translate(292,227)"/><path fill="#3BA2D3" d="M0 0 C0.66 0 1.32 0 2 0 C2 0.99 2 1.98 2 3 C2.99 3.33 3.98 3.66 5 4 C6.16796875 6.3984375 6.16796875 6.3984375 7.1875 9.375 C7.53167969 10.35210937 7.87585938 11.32921875 8.23046875 12.3359375 C9 15 9 15 9 18 C9.66 18 10.32 18 11 18 C11.33 17.01 11.66 16.02 12 15 C13.67110042 17.96178773 14.32682752 20.37071192 14.625 23.75 C14.69976562 24.54921875 14.77453125 25.3484375 14.8515625 26.171875 C14.90054688 26.77515625 14.94953125 27.3784375 15 28 C14.34 27.67 13.68 27.34 13 27 C13 26.34 13 25.68 13 25 C12.01 24.67 11.02 24.34 10 24 C9.06445312 22.40527344 9.06445312 22.40527344 8.28125 20.359375 C7.98863281 19.61816406 7.69601563 18.87695312 7.39453125 18.11328125 C7.09933594 17.33339844 6.80414063 16.55351562 6.5 15.75 C4.62547503 10.89588076 2.74016958 6.44442139 0 2 C0 1.34 0 0.68 0 0 Z" transform="translate(119,180)"/><path fill="#0B1C4C" d="M0 0 C6.44561124 4.54984323 12.11762851 9.70611598 17.86328125 15.0859375 C20.99948865 18.01886344 24.22633296 20.83286692 27.51171875 23.59765625 C29 25 29 25 31 28 C26.47025774 26.61591209 24.88584406 24.64974396 22 21 C20.77418284 20.07135063 19.52245816 19.17613626 18.25 18.3125 C17.1775 17.549375 16.105 16.78625 15 16 C15 15.34 15 14.68 15 14 C14.443125 13.95875 13.88625 13.9175 13.3125 13.875 C9.86061611 12.56888177 8.32982956 9.79579547 6 7 C4.9171875 6.7525 4.9171875 6.7525 3.8125 6.5 C3.214375 6.335 2.61625 6.17 2 6 C0.75 2.9375 0.75 2.9375 0 0 Z" transform="translate(321,336)"/><path fill="#0B204A" d="M0 0 C0.66 0.33 1.32 0.66 2 1 C2.6328125 3.72265625 2.6328125 3.72265625 3.125 7.0625 C3.29257813 8.16722656 3.46015625 9.27195312 3.6328125 10.41015625 C3.75398438 11.26480469 3.87515625 12.11945313 4 13 C2 14 2 14 0.12060547 13.56274414 C-0.62302246 13.30614014 -1.36665039 13.04953613 -2.1328125 12.78515625 C-2.93847656 12.51123047 -3.74414062 12.23730469 -4.57421875 11.95507812 C-5.41597656 11.66052734 -6.25773438 11.36597656 -7.125 11.0625 C-8.39923828 10.62647461 -8.39923828 10.62647461 -9.69921875 10.18164062 C-11.80186749 9.46106999 -13.90187477 8.73361685 -16 8 C-16 7.34 -16 6.68 -16 6 C-15.18015625 6.22816406 -14.3603125 6.45632813 -13.515625 6.69140625 C-12.43796875 6.97886719 -11.3603125 7.26632812 -10.25 7.5625 C-9.18265625 7.85253906 -8.1153125 8.14257812 -7.015625 8.44140625 C-4.15664073 8.97098494 -2.68402617 8.98370862 0 8 C-0.185625 7.05125 -0.37125 6.1025 -0.5625 5.125 C-1 2 -1 2 0 0 Z" transform="translate(250,308)"/><path fill="#0D214B" d="M0 0 C1.91385532 2.87078299 2.96432952 5.33411656 4.125 8.5625 C4.47820312 9.53316406 4.83140625 10.50382812 5.1953125 11.50390625 C6 14 6 14 6 16 C6.66 16.33 7.32 16.66 8 17 C8.7109375 19.00390625 8.7109375 19.00390625 9.375 21.5625 C10.55516777 25.81475398 12.0974205 29.41227403 14.328125 33.2109375 C15.18358294 35.48884295 14.77690546 36.7390059 14 39 C10.07575268 30.35234254 6.38184146 21.64948407 3.0625 12.75 C2.75626709 11.94071045 2.45003418 11.1314209 2.13452148 10.29760742 C1.71408569 9.15255737 1.71408569 9.15255737 1.28515625 7.984375 C1.03644775 7.31116211 0.78773926 6.63794922 0.53149414 5.94433594 C0 4 0 4 0 0 Z" transform="translate(114,83)"/><path fill="#269FD4" d="M0 0 C0.86625 0.4640625 0.86625 0.4640625 1.75 0.9375 C3.84294184 1.92583364 5.74535275 2.5168613 8 3 C8 3.66 8 4.32 8 5 C9.98 5.99 11.96 6.98 14 8 C14 8.66 14 9.32 14 10 C8.1204188 8.13574255 2.4748426 5.84691815 -3 3 C-2.01 2.01 -1.02 1.02 0 0 Z" transform="translate(210,257)"/><path fill="#081D51" d="M0 0 C3.38519488 0.21157468 4.7365298 1.64221854 7 4 C9.09989652 5.17574711 9.09989652 5.17574711 11 6 C7.22134307 7.25955231 5.96588214 6.48087189 2.3125 5.0625 C1.31863281 4.68222656 0.32476562 4.30195313 -0.69921875 3.91015625 C-1.45847656 3.60980469 -2.21773437 3.30945313 -3 3 C-1.625 1.4921875 -1.625 1.4921875 0 0 Z" transform="translate(194,299)"/><path fill="#0D234E" d="M0 0 C7.81301502 0.97662688 14.53524215 5.8047848 21 10 C20.01 10.495 20.01 10.495 19 11 C17.02880859 10.19555664 17.02880859 10.19555664 14.6484375 8.91015625 C13.79765625 8.45576172 12.946875 8.00136719 12.0703125 7.53320312 C11.18085938 7.04787109 10.29140625 6.56253906 9.375 6.0625 C8.02921875 5.34030273 8.02921875 5.34030273 6.65625 4.60351562 C4.43356364 3.40941284 2.21515174 2.20800619 0 1 C0 0.67 0 0.34 0 0 Z" transform="translate(202,185)"/><path fill="#2AA0D4" d="M0 0 C0.33 0.99 0.66 1.98 1 3 C1.7425 3.12375 2.485 3.2475 3.25 3.375 C5.80141485 3.95486701 7.7267573 4.73708739 10 6 C8 7 8 7 5.86328125 6.29296875 C5.02152344 5.92816406 4.17976562 5.56335938 3.3125 5.1875 C-0.75902017 3.47970707 -4.73134117 2.11356317 -9 1 C-9 0.67 -9 0.34 -9 0 C-5.69903842 -0.8252404 -3.1967 -1.37001429 0 0 Z" transform="translate(197,253)"/><path fill="#289ED3" d="M0 0 C3.7485292 1.24950973 4.05145731 2.80490726 5.81640625 6.15625 C7.09274441 8.14447314 8.38734896 9.31247167 10.25 10.75 C11.1575 11.4925 12.065 12.235 13 13 C13 13.99 13 14.98 13 16 C12.34 16 11.68 16 11 16 C11 15.34 11 14.68 11 14 C10.34 14 9.68 14 9 14 C5.21217377 9.84288709 2.30306829 5.11792952 0 0 Z" transform="translate(134,208)"/><path fill="#34A1CF" d="M0 0 C2.475 0.495 2.475 0.495 5 1 C4.01 1.33 3.02 1.66 2 2 C2.26554687 2.53109375 2.53109375 3.0621875 2.8046875 3.609375 C3.86979167 5.73958333 4.93489583 7.86979167 6 10 C6.39445312 10.66515625 6.78890625 11.3303125 7.1953125 12.015625 C8.17567813 14.43322569 7.8621789 15.58589909 7 18 C6.01407845 15.94072044 5.03652506 13.87743312 4.0625 11.8125 C3.51722656 10.66394531 2.97195312 9.51539063 2.41015625 8.33203125 C1.20539869 5.48533264 0.45223729 3.03972155 0 0 Z" transform="translate(108,154)"/><path fill="#0B2150" d="M0 0 C0.33 0 0.66 0 1 0 C1.12375 1.19625 1.2475 2.3925 1.375 3.625 C1.70340072 6.41395534 2.15670061 8.40412263 3.1875 11.0625 C4.2537585 14.91743457 3.33215741 17.29956276 2 21 C1.67 21 1.34 21 1 21 C0.25194283 13.97360585 -0.13794954 7.06608191 0 0 Z" transform="translate(260,240)"/><path fill="#15A5DB" d="M0 0 C1.67110042 2.96178773 2.32682752 5.37071192 2.625 8.75 C2.69976562 9.54921875 2.77453125 10.3484375 2.8515625 11.171875 C2.92503906 12.07679688 2.92503906 12.07679688 3 13 C2.34 12.67 1.68 12.34 1 12 C1 11.34 1 10.68 1 10 C0.01 9.67 -0.98 9.34 -2 9 C-2.25 3.375 -2.25 3.375 0 0 Z" transform="translate(131,195)"/><path fill="#0B1E52" d="M0 0 C0.598125 0.20625 1.19625 0.4125 1.8125 0.625 C1.4825 1.285 1.1525 1.945 0.8125 2.625 C1.37839844 2.74617188 1.94429687 2.86734375 2.52734375 2.9921875 C3.26082031 3.15976562 3.99429688 3.32734375 4.75 3.5 C5.48089844 3.66242188 6.21179688 3.82484375 6.96484375 3.9921875 C8.8125 4.625 8.8125 4.625 9.8125 6.625 C7.87327578 6.17401762 5.93616406 5.71394441 4 5.25 C2.92105469 4.99476563 1.84210938 4.73953125 0.73046875 4.4765625 C-2.1875 3.625 -2.1875 3.625 -5.1875 1.625 C-2.1875 -0.375 -2.1875 -0.375 0 0 Z" transform="translate(223.1875,308.375)"/><path fill="#149CD0" d="M0 0 C7.57142857 3 7.57142857 3 10 6 C8.68 6 7.36 6 6 6 C6 6.99 6 7.98 6 9 C4.68 9 3.36 9 2 9 C2 8.34 2 7.68 2 7 C2.66 7 3.32 7 4 7 C4.33 5.68 4.66 4.36 5 3 C3.35 3 1.7 3 0 3 C0 2.01 0 1.02 0 0 Z" transform="translate(224,211)"/><path fill="#1E96CB" d="M0 0 C5.68502535 1.64566523 10.76681636 4.29032784 16 7 C16 7.33 16 7.66 16 8 C14.35 8 12.7 8 11 8 C11 7.34 11 6.68 11 6 C10.113125 5.938125 9.22625 5.87625 8.3125 5.8125 C4.25918008 4.81828945 2.70168251 3.09898876 0 0 Z" transform="translate(152,175)"/><path fill="#0E1F4D" d="M0 0 C2.475 0.495 2.475 0.495 5 1 C5 1.66 5 2.32 5 3 C5.95712891 3.16435547 5.95712891 3.16435547 6.93359375 3.33203125 C7.75988281 3.49058594 8.58617187 3.64914062 9.4375 3.8125 C10.67306641 4.03873047 10.67306641 4.03873047 11.93359375 4.26953125 C12.95646484 4.63111328 12.95646484 4.63111328 14 5 C14.33 5.99 14.66 6.98 15 8 C10.96522658 7.41841104 8.14758799 6.13243941 4.6875 4 C3.80449219 3.46375 2.92148437 2.9275 2.01171875 2.375 C1.34785156 1.92125 0.68398438 1.4675 0 1 C0 0.67 0 0.34 0 0 Z" transform="translate(343,378)"/><path fill="#071D49" d="M0 0 C1.29608947 0.93137592 2.58671632 1.8703566 3.875 2.8125 C4.59429687 3.33457031 5.31359375 3.85664063 6.0546875 4.39453125 C8 6 8 6 10 9 C5.125 7.25 5.125 7.25 4 5 C2.02 5.33 0.04 5.66 -2 6 C-1.34 4.02 -0.68 2.04 0 0 Z" transform="translate(357,368)"/><path fill="#299ED1" d="M0 0 C4.21752761 1.56204726 6.37399346 4.45134252 9 8 C9.8125 10.375 9.8125 10.375 10 12 C9.01 12 8.02 12 7 12 C6.7525 11.05125 6.505 10.1025 6.25 9.125 C4.82576013 5.56440032 4.28284113 5.48257341 1 4 C0.25 1.875 0.25 1.875 0 0 Z" transform="translate(234,217)"/><path fill="#0B224F" d="M0 0 C4.44973611 0.50854127 6.62493666 2.14417717 10 5 C11.31138904 5.70885894 12.63777017 6.39456452 14 7 C13.67 7.99 13.34 8.98 13 10 C11.20674674 8.71053695 9.41544722 7.41835648 7.625 6.125 C6.12839844 5.04605469 6.12839844 5.04605469 4.6015625 3.9453125 C2 2 2 2 0 0 Z" transform="translate(237,203)"/><path fill="#1C99D0" d="M0 0 C3.7910119 1.44950455 7.3874638 3.15172566 11 5 C7.52674819 6.1577506 4.63932552 6.06866652 1 6 C0.67 4.02 0.34 2.04 0 0 Z" transform="translate(114,156)"/><path fill="#0B1E4D" d="M0 0 C2.1875 -0.3125 2.1875 -0.3125 5 0 C7.51896068 2.17546604 9.5050985 4.010197 11 7 C6.89188572 5.55007731 3.53144334 3.54592427 0 1 C0 0.67 0 0.34 0 0 Z" transform="translate(316,360)"/><path fill="#101D48" d="M0 0 C2.31 1.65 4.62 3.3 7 5 C6.67 5.66 6.34 6.32 6 7 C3.03 6.505 3.03 6.505 0 6 C0.66 5.67 1.32 5.34 2 5 C1.34 3.35 0.68 1.7 0 0 Z" transform="translate(375,384)"/><path fill="#092047" d="M0 0 C2.475 0.495 2.475 0.495 5 1 C5 1.66 5 2.32 5 3 C5.78375 3.268125 6.5675 3.53625 7.375 3.8125 C10 5 10 5 12 8 C7.44328408 6.48109469 3.68276708 4.04597738 0 1 C0 0.67 0 0.34 0 0 Z" transform="translate(303,351)"/><path fill="#0D214D" d="M0 0 C6.14830711 1.20555041 8.35248219 2.91558124 12 8 C7.44328408 6.48109469 3.68276708 4.04597738 0 1 C0 0.67 0 0.34 0 0 Z" transform="translate(284,338)"/><path fill="#1E9CD2" d="M0 0 C4.40114397 0.50298788 6.71195019 2.08772731 10 5 C8.35 5.33 6.7 5.66 5 6 C5 5.34 5 4.68 5 4 C4.360625 3.896875 3.72125 3.79375 3.0625 3.6875 C2.381875 3.460625 1.70125 3.23375 1 3 C0.67 2.01 0.34 1.02 0 0 Z" transform="translate(188,193)"/><path fill="#149EDC" d="M0 0 C0.86625 0.4640625 0.86625 0.4640625 1.75 0.9375 C3.84294184 1.92583364 5.74535275 2.5168613 8 3 C7.67 3.66 7.34 4.32 7 5 C0.375 5.25 0.375 5.25 -3 3 C-2.01 2.01 -1.02 1.02 0 0 Z" transform="translate(210,257)"/><path fill="#0A2148" d="M0 0 C1.65 0 3.3 0 5 0 C5.33 0.99 5.66 1.98 6 3 C6.66 3 7.32 3 8 3 C8 3.66 8 4.32 8 5 C4.62496331 3.8141763 2.35277269 2.72426311 0 0 Z" transform="translate(174,170)"/><path fill="#0B1F4E" d="M0 0 C6.875 3.75 6.875 3.75 8 6 C5.36 5.34 2.72 4.68 0 4 C0 2.68 0 1.36 0 0 Z" transform="translate(192,128)"/><path fill="#0B204E" d="M0 0 C1.98 0 3.96 0 6 0 C6.66 1.65 7.32 3.3 8 5 C4.62496331 3.8141763 2.35277269 2.72426311 0 0 Z" transform="translate(335,373)"/><path fill="#0B1E51" d="M0 0 C3.0916909 2.52956528 3.90931332 5.22454612 5 9 C3.0625 7.875 3.0625 7.875 1 6 C0.25 2.8125 0.25 2.8125 0 0 Z" transform="translate(245,297)"/><path fill="#0D1F4E" d="M0 0 C1.875 0.125 1.875 0.125 4 1 C5.25 4.0625 5.25 4.0625 6 7 C1.125 3.375 1.125 3.375 0 0 Z" transform="translate(174,288)"/><path fill="#24A6DD" d="M0 0 C0.66 0 1.32 0 2 0 C2 0.99 2 1.98 2 3 C2.99 3.33 3.98 3.66 5 4 C5 4.99 5 5.98 5 7 C3.0625 6.3125 3.0625 6.3125 1 5 C0.25 2.375 0.25 2.375 0 0 Z" transform="translate(119,180)"/></svg>